<?xml version="1.0" standalone="no"?>
<!DOCTYPE svg PUBLIC "-//W3C//DTD SVG 20010904//EN"
 "http://www.w3.org/TR/2001/REC-SVG-20010904/DTD/svg10.dtd">
<svg version="1.0" xmlns="http://www.w3.org/2000/svg"
 width="754.000000pt" height="567.000000pt" viewBox="0 0 754.000000 567.000000"
 preserveAspectRatio="xMidYMid meet">

<g transform="translate(0.000000,567.000000) scale(0.100000,-0.100000)"
fill="#000000" stroke="none">
<path d="M0 2830 l0 -2830 3770 0 3770 0 0 2830 0 2830 -3770 0 -3770 0 0
-2830z m5100 2214 c17 -15 44 -52 59 -83 38 -76 95 -280 122 -433 10 -65 13
-69 60 -103 36 -25 49 -42 49 -59 0 -30 -24 -56 -52 -56 -16 0 -19 -5 -14 -27
3 -16 14 -91 26 -168 11 -77 22 -152 25 -167 2 -15 17 -46 31 -68 33 -50 42
-128 24 -204 -10 -44 -8 -79 14 -256 15 -113 29 -217 32 -232 5 -24 2 -28 -18
-29 -17 -1 -18 -3 -5 -6 20 -5 21 -16 7 -44 -7 -11 -7 -19 -1 -19 5 0 11 6 14
13 7 20 14 5 21 -48 5 -44 5 -47 -8 -30 -12 16 -16 17 -30 6 -18 -15 -20 -39
-6 -61 8 -12 13 -13 29 -3 17 11 20 9 26 -17 4 -16 3 -39 0 -51 -5 -13 -2 -25
6 -31 12 -8 12 -10 0 -15 -7 -3 -9 -8 -4 -12 6 -3 13 -17 16 -31 5 -19 1 -29
-13 -38 -13 -8 -20 -9 -20 -1 0 6 -10 9 -22 7 -17 -2 -24 -11 -26 -31 -4 -29
21 -48 39 -30 7 7 18 7 35 -1 31 -14 32 -51 2 -60 -22 -7 -22 -7 -3 -16 11 -5
14 -9 6 -9 -11 -1 -11 -4 -1 -16 10 -12 9 -15 -5 -15 -10 0 -15 -3 -11 -7 4
-5 17 -8 29 -8 19 0 23 -8 29 -60 4 -33 19 -131 33 -218 15 -87 24 -165 21
-173 -3 -8 4 -33 16 -56 20 -38 20 -41 4 -54 -26 -18 -18 -70 10 -67 16 2 23
-6 32 -34 6 -20 9 -40 6 -45 -3 -4 1 -8 8 -8 9 0 9 -3 -2 -10 -11 -7 -16 -4
-20 13 -8 29 -36 34 -49 8 -19 -34 -4 -49 50 -49 l49 0 -2 42 c-2 50 126 497
135 473 10 -25 36 -20 43 8 7 26 -11 59 -27 49 -13 -8 -11 2 12 56 11 27 27
51 35 54 19 7 18 -13 -3 -36 -15 -17 -14 -18 18 -17 26 0 30 2 15 8 -14 5 -16
10 -8 15 16 10 15 46 0 46 -9 0 -8 4 2 10 20 13 56 13 81 0 15 -9 17 -14 7
-29 -6 -10 -8 -26 -5 -35 7 -19 47 -22 48 -3 0 11 37 -59 38 -75 1 -5 -7 -8
-16 -9 -16 0 -16 -1 1 -8 18 -7 18 -8 3 -14 -26 -10 -21 -37 7 -37 19 0 25 -8
35 -43 6 -23 24 -91 40 -151 23 -87 27 -114 18 -133 -8 -19 -7 -27 6 -40 13
-13 19 -14 31 -4 10 8 16 9 21 1 3 -5 15 -10 26 -10 16 0 18 5 13 28 -10 48
-13 52 -30 45 -14 -5 -16 -3 -11 11 4 10 7 24 7 32 0 8 7 14 15 14 21 0 31 30
14 42 -12 8 -12 10 0 15 8 3 10 8 3 12 -7 4 -1 46 19 126 43 175 47 185 73
185 12 0 27 5 34 12 9 9 12 9 12 0 0 -16 40 -16 40 1 1 6 9 2 19 -10 23 -28
53 -144 52 -205 0 -27 4 -48 10 -48 14 0 11 -58 -3 -63 -8 -3 -5 -6 6 -6 12
-1 16 -6 12 -16 -3 -8 -9 -22 -13 -32 -4 -10 -2 -14 4 -10 6 4 14 0 17 -9 11
-28 6 -42 -14 -47 -23 -6 -27 -37 -5 -37 8 0 15 -4 15 -10 0 -5 -8 -10 -17
-10 -13 0 -14 -3 -5 -12 8 -8 15 -8 27 2 13 10 15 9 15 -8 0 -11 3 -35 6 -53
6 -32 5 -33 -8 -15 -20 26 -48 14 -48 -19 0 -32 28 -45 46 -21 11 16 13 14 19
-18 4 -20 5 -42 2 -50 -3 -7 -1 -18 5 -24 8 -8 7 -16 -2 -28 -12 -14 -12 -17
3 -25 22 -13 23 -69 2 -69 -9 0 -15 -9 -15 -25 0 -18 5 -25 19 -25 20 0 19 4
42 -143 7 -42 16 -77 21 -77 4 0 14 13 23 30 28 54 95 68 133 27 23 -24 47
-85 56 -137 2 -18 7 -34 10 -37 3 -3 1 -14 -5 -24 -7 -14 -6 -19 4 -19 25 0
30 -43 7 -59 -24 -16 -27 -59 -5 -67 8 -4 22 -1 29 5 10 9 15 9 18 1 2 -8 15
-6 40 6 20 9 42 14 50 10 64 -33 78 -47 78 -85 0 -23 -1 -24 -14 -6 -19 27
-46 13 -46 -25 0 -22 5 -30 18 -30 10 0 23 5 30 12 9 9 12 9 12 0 0 -7 7 -12
15 -12 8 0 15 -6 15 -14 0 -8 3 -21 6 -30 4 -12 0 -16 -17 -17 -17 -1 -19 -3
-7 -6 16 -4 17 -7 3 -34 -20 -37 -1 -39 19 -1 14 26 15 23 16 -60 0 -96 -8
-106 -44 -61 -31 41 -47 91 -30 97 19 7 17 35 -3 43 -15 6 -15 7 3 15 15 7 14
8 -8 5 -23 -3 -27 0 -33 27 -3 17 -11 44 -18 59 -12 28 -12 28 -32 10 -13 -12
-35 -19 -65 -19 -43 1 -46 3 -63 40 -10 22 -29 81 -44 130 -14 50 -29 96 -33
101 -14 19 -9 80 8 98 16 18 16 20 -1 32 -13 10 -15 14 -5 18 7 2 10 8 6 12
-11 12 -38 -2 -38 -20 0 -8 7 -15 15 -15 8 0 15 -4 15 -10 0 -5 -7 -10 -15
-10 -8 0 -14 -3 -13 -8 1 -4 -9 -28 -21 -54 -23 -48 -24 -48 -72 -48 -54 0
-66 11 -93 88 -25 71 -29 127 -12 161 20 38 20 39 -6 43 -34 5 -38 55 -6 60
18 2 23 9 23 33 0 25 -5 31 -25 33 -24 2 -24 2 -6 -13 15 -11 16 -15 5 -16
-10 0 -10 -2 -1 -6 17 -7 15 -23 -3 -23 -8 0 -17 10 -19 23 -6 26 -42 303 -52
395 -4 34 -10 65 -15 68 -4 2 -6 11 -2 19 6 18 -8 19 -27 3 -8 -7 -7 -4 3 8
22 26 21 34 0 35 -17 1 -17 2 0 6 18 5 26 63 8 63 -5 0 -11 27 -13 60 -2 49 0
60 13 60 10 0 15 10 16 35 1 37 -9 51 -28 39 -8 -5 -8 -8 0 -13 8 -5 7 -16 -3
-37 -8 -16 -19 -54 -24 -84 -6 -30 -15 -70 -20 -87 -9 -27 -8 -33 4 -33 18 0
18 -21 -2 -46 -14 -18 -15 -18 -4 4 12 25 6 43 -9 26 -4 -5 -14 -35 -20 -68
-7 -32 -25 -93 -40 -135 -20 -57 -31 -77 -46 -78 -11 -2 -32 -4 -47 -6 -33 -5
-72 29 -89 78 -7 19 -17 35 -21 35 -4 0 -8 7 -8 15 0 8 -6 15 -12 15 -10 0
-10 2 -1 8 9 6 9 18 2 47 -6 22 -14 56 -18 75 -18 82 -35 121 -48 116 -7 -3
-13 -1 -13 4 0 6 4 10 9 10 5 0 8 18 6 39 -3 32 -1 40 15 44 23 6 29 62 8 70
-20 6 -38 -3 -39 -22 0 -9 -7 3 -16 27 -17 50 -29 53 -38 12 -5 -23 -12 -30
-30 -30 -29 0 -43 -50 -16 -57 14 -4 16 -12 11 -41 -4 -26 -2 -40 9 -48 17
-13 6 -34 -18 -34 -20 0 -31 -26 -31 -72 0 -16 -6 -28 -12 -29 -10 0 -10 -2 0
-6 11 -4 10 -8 -1 -22 -21 -23 -31 -61 -17 -61 6 0 8 -4 5 -10 -3 -5 1 -10 9
-10 9 0 16 -4 16 -10 0 -5 -8 -6 -17 -3 -13 5 -15 2 -10 -13 7 -18 6 -18 -7
-1 -13 16 -16 12 -35 -44 -27 -82 -59 -126 -97 -139 -50 -17 -92 7 -124 70
-27 51 -60 194 -54 229 5 24 3 37 -8 45 -8 6 -18 26 -21 44 -6 28 -4 32 16 33
21 0 21 1 2 9 -17 7 -17 9 -2 9 26 1 21 31 -6 31 -19 0 -24 9 -35 53 -20 78
-22 139 -5 156 13 13 13 16 -3 28 -16 12 -17 15 -4 23 13 8 13 10 -1 10 -21 0
-30 44 -13 62 7 7 16 25 19 41 6 24 5 27 -19 27 -14 0 -26 3 -26 8 1 9 -53
446 -55 449 0 1 -12 -1 -25 -4 -22 -6 -23 -7 -4 -14 17 -7 17 -8 1 -8 -22 -1
-34 27 -17 42 10 9 11 9 6 0 -4 -7 -2 -13 3 -13 6 0 11 5 11 11 0 5 5 7 11 3
13 -8 12 4 -20 249 -10 75 -20 139 -22 142 -2 2 -38 -13 -79 -33 -73 -37 -74
-37 -199 -37 -119 0 -131 2 -206 33 -44 18 -107 52 -140 75 -53 38 -60 47 -60
77 0 28 5 36 26 44 22 7 34 3 73 -23 133 -92 278 -128 392 -98 62 16 135 57
163 91 10 12 11 33 1 103 -6 47 -16 95 -21 105 -17 31 -106 68 -239 99 -70 16
-147 36 -171 44 -48 17 -149 82 -149 96 0 5 -4 9 -9 9 -4 0 -30 -78 -56 -172
-127 -459 -150 -538 -201 -698 -16 -51 -21 -76 -13 -79 8 -2 7 -7 -2 -13 -11
-7 -11 -11 -1 -15 20 -8 14 -33 -12 -43 -13 -5 -27 -19 -31 -32 -26 -88 -111
-307 -113 -294 -2 11 -11 16 -25 14 -31 -4 -37 -57 -8 -65 16 -4 18 -9 11 -28
-6 -17 -5 -27 6 -35 15 -13 19 -46 6 -54 -4 -3 -8 5 -8 17 1 12 -3 22 -9 22
-5 0 -9 -11 -9 -25 1 -24 1 -24 -15 -4 -9 12 -23 23 -31 27 -12 4 -11 6 3 6 9
1 17 6 17 11 0 16 -18 12 -37 -9 -13 -14 -23 -17 -33 -11 -12 8 -12 10 -1 10
7 0 11 6 7 15 -8 23 22 85 42 85 15 -1 15 -2 -2 -15 -18 -13 -18 -15 -3 -15
26 0 34 30 12 46 -18 14 -18 14 1 14 13 0 15 3 6 8 -9 6 -10 16 -1 40 9 28 14
31 40 25 27 -5 29 -3 29 25 0 19 -7 35 -17 41 -17 10 -17 12 0 41 9 18 17 40
17 49 0 10 9 44 21 77 41 119 141 451 199 662 217 793 226 824 287 1002 39
113 100 242 129 276 56 61 130 73 184 28z m-3270 -74 c20 -20 20 -33 20 -754
0 -654 -2 -736 -16 -750 -22 -23 -71 -20 -84 3 -7 13 -10 267 -10 755 l0 735
22 15 c30 21 44 20 68 -4z m-713 -476 c82 -27 168 -76 184 -106 14 -27 -13
-68 -45 -68 -13 0 -50 16 -82 35 -78 47 -142 65 -230 65 -224 0 -406 -151
-444 -369 -49 -269 198 -524 481 -497 82 7 137 26 211 71 49 31 60 34 81 24
60 -27 36 -80 -58 -130 -90 -49 -170 -69 -270 -69 -162 0 -285 50 -398 161
-164 163 -203 404 -100 619 16 33 55 84 97 126 156 156 364 207 573 138z
m1678 14 c65 -16 155 -69 217 -128 l58 -56 0 81 c0 92 12 118 55 118 56 0 55
7 55 -539 0 -543 1 -534 -52 -534 -45 0 -58 27 -58 117 l0 83 -54 -53 c-63
-64 -138 -109 -220 -132 -81 -23 -229 -16 -305 14 -319 128 -434 540 -232 828
123 175 329 253 536 201z m1305 -5 c50 -16 166 -77 193 -101 22 -19 22 -50 0
-74 -23 -25 -42 -23 -99 14 -102 65 -152 82 -239 81 -98 0 -169 -27 -219 -84
-62 -68 -58 -141 13 -200 35 -29 170 -79 213 -79 39 0 152 -32 218 -62 110
-49 167 -121 177 -223 23 -218 -250 -379 -522 -310 -80 20 -196 79 -248 126
-41 37 -42 38 -27 66 9 15 23 29 32 31 9 2 52 -17 95 -43 105 -60 173 -85 253
-92 125 -10 254 50 298 139 20 40 22 51 12 87 -25 94 -98 138 -309 186 -200
45 -270 81 -322 163 -24 38 -29 57 -29 109 0 78 16 118 69 176 92 99 288 139
441 90z m2825 5 c93 -20 214 -86 229 -124 17 -44 -33 -83 -75 -58 -119 69
-174 88 -259 92 -140 7 -242 -30 -341 -125 -213 -203 -161 -556 102 -687 158
-79 310 -73 461 19 50 31 60 34 82 24 33 -15 42 -44 23 -73 -20 -30 -138 -91
-213 -111 -74 -19 -200 -19 -283 0 -235 56 -411 280 -411 523 1 139 57 271
159 373 140 140 323 191 526 147z m-995 -888 c0 -27 3 -30 30 -30 28 0 30 -3
30 -35 0 -32 -2 -35 -30 -35 -27 0 -30 -3 -30 -30 0 -28 -3 -30 -35 -30 -32 0
-35 2 -35 30 0 27 -3 30 -30 30 -28 0 -30 3 -30 35 0 32 2 35 30 35 27 0 30 3
30 30 0 28 3 30 35 30 32 0 35 -2 35 -30z m-5512 -481 c3 -12 2 -12 -6 0 -6 8
-15 10 -22 6 -9 -5 -11 -4 -6 4 10 15 28 10 34 -10z m166 -9 c-6 -6 -10 -3
-10 10 0 13 4 16 10 10 7 -7 7 -13 0 -20z m64 9 c3 -12 2 -12 -6 0 -6 8 -15
10 -22 6 -9 -5 -11 -4 -6 4 10 15 28 10 34 -10z m51 -16 c-1 -37 -1 -37 -8 -8
-7 28 -5 45 5 45 2 0 3 -17 3 -37z m115 7 c-6 -6 -10 -3 -10 10 0 13 4 16 10
10 7 -7 7 -13 0 -20z m354 9 c3 -12 2 -12 -6 0 -6 8 -15 10 -22 6 -9 -5 -11
-4 -6 4 10 15 28 10 34 -10z m216 14 c-5 -5 -12 -12 -16 -18 -4 -6 -8 -2 -8 8
0 9 7 17 17 17 9 0 12 -3 7 -7z m129 0 c-7 -2 -19 -2 -25 0 -7 3 -2 5 12 5 14
0 19 -2 13 -5z m55 -18 c-3 -3 -9 2 -12 12 -6 14 -5 15 5 6 7 -7 10 -15 7 -18z
m122 16 c0 -5 -9 -7 -20 -4 -11 3 -20 7 -20 9 0 2 9 4 20 4 11 0 20 -4 20 -9z
m920 -8 c0 -11 -3 -14 -8 -7 -4 6 -14 14 -22 17 -10 4 -8 6 8 6 15 1 22 -5 22
-16z m44 10 c-5 -5 -12 -12 -16 -18 -4 -6 -8 -2 -8 8 0 9 7 17 17 17 9 0 12
-3 7 -7z m879 0 c-7 -2 -19 -2 -25 0 -7 3 -2 5 12 5 14 0 19 -2 13 -5z m974
-9 c7 -19 -7 -46 -28 -52 -12 -3 -12 -2 0 6 21 15 24 52 5 52 -11 0 -14 -5 -9
-17 5 -14 3 -15 -6 -6 -6 6 -8 16 -5 22 11 16 36 13 43 -5z m98 4 c-19 -11
-19 -11 0 -19 17 -7 18 -8 3 -8 -10 -1 -18 -6 -18 -12 0 -6 7 -9 15 -5 8 3 15
1 15 -5 0 -18 -35 -5 -38 14 -4 20 14 47 32 47 6 0 2 -6 -9 -12z m185 -7 c0
-11 -5 -23 -12 -27 -8 -5 -6 -10 8 -15 17 -7 17 -8 -3 -8 -26 -1 -28 2 -10 29
10 17 9 22 -3 30 -13 8 -12 10 3 10 10 0 17 -8 17 -19z m60 4 c16 -19 3 -57
-18 -53 -18 3 -27 30 -18 54 7 18 20 18 36 -1z m275 3 c-19 -11 -19 -11 0 -19
17 -7 18 -8 3 -8 -10 -1 -18 -6 -18 -12 0 -6 7 -9 15 -5 8 3 15 1 15 -5 0 -18
-35 -5 -38 14 -4 20 14 47 32 47 6 0 2 -6 -9 -12z m55 2 c-13 -8 -12 -11 4
-23 21 -16 14 -38 -12 -36 -15 1 -15 2 1 6 21 5 23 23 2 23 -8 0 -15 9 -15 20
0 12 7 20 18 20 14 0 15 -2 2 -10z m130 6 c0 -2 -7 -7 -16 -10 -8 -3 -12 -2
-9 4 6 10 25 14 25 6z m1620 -8 c-1 -7 -8 -24 -16 -38 -14 -23 -13 -13 2 24 3
9 -2 16 -13 19 -14 4 -14 5 5 6 12 0 22 -5 22 -11z m50 2 c0 -5 -5 -10 -11
-10 -5 0 -7 5 -4 10 3 6 8 10 11 10 2 0 4 -4 4 -10z m174 -20 c-6 -6 -10 -3
-10 10 0 13 4 16 10 10 7 -7 7 -13 0 -20z m-6580 -33 c7 -6 6 -7 -4 -4 -8 2
-16 16 -17 33 -1 25 0 26 4 4 3 -14 10 -29 17 -33z m230 0 c7 -6 6 -7 -4 -4
-8 2 -16 16 -17 33 -1 25 0 26 4 4 3 -14 10 -29 17 -33z m1093 6 c-3 -10 -5
-2 -5 17 0 19 2 27 5 18 2 -10 2 -26 0 -35z m1030 25 c-3 -8 -6 -5 -6 6 -1 11
2 17 5 13 3 -3 4 -12 1 -19z m260 -10 c-3 -7 -5 -2 -5 12 0 14 2 19 5 13 2 -7
2 -19 0 -25z m260 10 c-3 -8 -6 -5 -6 6 -1 11 2 17 5 13 3 -3 4 -12 1 -19z
m1510 2 c8 0 13 -7 11 -17 -6 -30 -33 -21 -35 12 -1 17 0 24 3 18 3 -7 12 -13
21 -13z m1770 -2 c-3 -8 -6 -5 -6 6 -1 11 2 17 5 13 3 -3 4 -12 1 -19z m-6275
-2 c7 4 8 2 4 -4 -11 -18 -26 -14 -25 6 0 10 3 12 6 4 2 -6 10 -9 15 -6z m25
-8 c-3 -8 -6 -5 -6 6 -1 11 2 17 5 13 3 -3 4 -12 1 -19z m37 -21 c7 -6 6 -7
-4 -4 -8 2 -16 14 -17 28 -1 19 -1 20 4 4 3 -11 10 -24 17 -28z m20 35 c3 -5
-1 -9 -9 -9 -8 0 -12 4 -9 9 3 4 7 8 9 8 2 0 6 -4 9 -8z m438 -6 c7 4 8 2 4
-4 -11 -18 -26 -14 -25 6 0 10 3 12 6 4 2 -6 10 -9 15 -6z m25 -8 c-3 -8 -6
-5 -6 6 -1 11 2 17 5 13 3 -3 4 -12 1 -19z m847 -21 c7 -6 6 -7 -4 -4 -8 2
-16 14 -17 28 -1 19 -1 20 4 4 3 -11 10 -24 17 -28z m423 21 c-3 -8 -6 -5 -6
6 -1 11 2 17 5 13 3 -3 4 -12 1 -19z m548 -2 c0 -15 -4 -21 -9 -16 -5 5 -6 16
-3 24 9 22 12 20 12 -8z m299 -19 c7 -6 6 -7 -4 -4 -8 2 -16 14 -17 28 -1 19
-1 20 4 4 3 -11 10 -24 17 -28z m933 21 c-3 -8 -6 -5 -6 6 -1 11 2 17 5 13 3
-3 4 -12 1 -19z m623 12 c8 13 10 12 10 -2 0 -10 -8 -18 -17 -19 -16 0 -15 -2
2 -10 l20 -9 -20 3 c-13 1 -21 11 -23 27 -2 20 -1 22 8 10 9 -13 11 -13 20 0z
m340 6 c0 -3 -4 -8 -10 -11 -5 -3 -10 -1 -10 4 0 6 5 11 10 11 6 0 10 -2 10
-4z m-3614 -35 c-4 -6 -15 -10 -24 -10 -15 1 -14 2 1 6 12 3 16 10 12 21 -5
13 -3 14 6 5 6 -6 8 -16 5 -22z m335 15 c-9 -11 -9 -15 1 -19 8 -4 7 -6 -4 -6
-21 -1 -23 10 -6 27 17 17 23 15 9 -2z m937 -11 c-3 -3 -9 2 -12 12 -6 14 -5
15 5 6 7 -7 10 -15 7 -18z m92 21 c0 -3 -4 -8 -10 -11 -5 -3 -10 -1 -10 4 0 6
5 11 10 11 6 0 10 -2 10 -4z m26 -25 c-4 -6 -13 -11 -19 -11 -8 0 -7 3 2 9 8
5 10 14 6 22 -6 11 -5 11 5 2 7 -6 9 -16 6 -22z m165 -4 c-8 -8 -14 -8 -23 2
-11 10 -10 11 5 6 12 -5 17 -2 18 11 0 12 2 14 6 6 3 -8 0 -19 -6 -25z m329
29 c0 -3 -4 -8 -10 -11 -5 -3 -10 -1 -10 4 0 6 5 11 10 11 6 0 10 -2 10 -4z
m28 -21 c-3 -3 -9 2 -12 12 -6 14 -5 15 5 6 7 -7 10 -15 7 -18z m25 5 c3 -11
1 -18 -4 -14 -5 3 -9 12 -9 20 0 20 7 17 13 -6z m1982 0 c0 -8 -9 -16 -20 -17
-16 -1 -16 -1 -2 3 24 8 22 28 -3 21 -11 -3 -20 -1 -20 5 0 5 10 8 23 6 12 -2
22 -10 22 -18z m1245 16 c0 -3 -4 -8 -10 -11 -5 -3 -10 -1 -10 4 0 6 5 11 10
11 6 0 10 -2 10 -4z m28 -21 c-3 -3 -9 2 -12 12 -6 14 -5 15 5 6 7 -7 10 -15
7 -18z m25 5 c3 -11 1 -18 -4 -14 -5 3 -9 12 -9 20 0 20 7 17 13 -6z m478 6
c-9 -11 -9 -15 1 -19 8 -4 7 -6 -4 -6 -21 -1 -23 10 -6 27 17 17 23 15 9 -2z
m-6680 -11 c11 6 11 5 2 -5 -12 -14 -33 -6 -33 13 0 8 3 7 9 -2 5 -8 14 -10
22 -6z m230 0 c11 6 11 5 2 -5 -12 -14 -33 -6 -33 13 0 8 3 7 9 -2 5 -8 14
-10 22 -6z m384 5 c-3 -5 -2 -10 4 -10 5 0 12 6 14 13 4 9 6 9 6 0 1 -15 -16
-26 -29 -18 -10 6 -5 25 6 25 3 0 2 -4 -1 -10z m136 -5 c11 6 11 5 2 -5 -12
-14 -33 -6 -33 13 0 8 3 7 9 -2 5 -8 14 -10 22 -6z m395 6 c-4 -5 0 -12 6 -14
7 -3 2 -6 -11 -6 -20 -1 -21 1 -11 14 14 16 25 21 16 6z m1916 -13 c-9 -9 -15
-9 -24 1 -11 10 -10 11 5 6 10 -5 17 -2 17 6 0 7 3 9 7 6 4 -4 1 -13 -5 -19z
m3280 0 c-9 -9 -15 -9 -24 1 -11 10 -10 11 5 6 10 -5 17 -2 17 6 0 7 3 9 7 6
4 -4 1 -13 -5 -19z m399 7 c11 6 11 5 2 -5 -12 -14 -33 -6 -33 13 0 8 3 7 9
-2 5 -8 14 -10 22 -6z m-2136 -13 c-3 -3 -11 0 -18 7 -9 10 -8 11 6 5 10 -3
15 -9 12 -12z m-4245 -56 c0 -2 -7 -7 -16 -10 -8 -3 -12 -2 -9 4 6 10 25 14
25 6z m3910 -30 c0 -33 -23 -56 -35 -35 -4 5 -1 8 6 7 7 -2 15 5 17 15 2 9 -1
17 -7 17 -6 0 -11 -5 -11 -12 0 -6 -3 -8 -7 -5 -5 6 23 44 35 46 1 1 2 -14 2
-33z m-4279 -15 c-15 -15 -21 -17 -21 -7 0 8 7 17 16 20 9 3 12 11 8 18 -5 10
-4 10 6 2 9 -10 8 -16 -9 -33z m79 7 c0 -26 -9 -19 -15 11 -2 12 0 19 6 16 5
-4 9 -16 9 -27z m25 12 c-2 -27 -15 -38 -15 -13 0 16 8 33 15 33 1 0 1 -9 0
-20z m60 0 c-2 -27 -15 -38 -15 -13 0 16 8 33 15 33 1 0 1 -9 0 -20z m138 -32
c-1 -3 -13 -3 -26 0 -18 5 -19 7 -4 10 9 2 17 13 18 25 1 20 2 20 8 -3 5 -14
6 -28 4 -32z m92 32 c-2 -27 -15 -38 -15 -13 0 16 8 33 15 33 1 0 1 -9 0 -20z
m358 13 c-7 -2 -13 -12 -13 -20 0 -9 -3 -14 -6 -10 -10 10 4 37 18 36 10 0 10
-2 1 -6z m187 -2 c0 -5 -9 -7 -20 -4 -11 3 -20 7 -20 9 0 2 9 4 20 4 11 0 20
-4 20 -9z m173 2 c-7 -2 -19 -2 -25 0 -7 3 -2 5 12 5 14 0 19 -2 13 -5z m224
-40 c-3 -10 -5 -2 -5 17 0 19 2 27 5 18 2 -10 2 -26 0 -35z m873 37 c0 -5 -7
-7 -15 -4 -8 4 -15 8 -15 10 0 2 7 4 15 4 8 0 15 -4 15 -10z m323 -10 c-3 -12
-8 -19 -11 -16 -5 6 5 36 12 36 2 0 2 -9 -1 -20z m197 10 c0 -5 -7 -7 -15 -4
-8 4 -15 8 -15 10 0 2 7 4 15 4 8 0 15 -4 15 -10z m1319 -22 c0 -27 -2 -29 -8
-13 -5 11 -6 24 -3 29 3 5 -2 7 -11 3 -10 -3 -17 -2 -17 3 0 6 9 10 20 10 16
0 20 -6 19 -32z m171 22 c0 -5 -2 -10 -4 -10 -3 0 -8 5 -11 10 -3 6 -1 10 4
10 6 0 11 -4 11 -10z m172 -15 c3 -14 2 -27 -1 -30 -4 -2 -8 6 -8 17 -1 12 -8
25 -15 29 -10 7 -9 9 3 9 10 0 19 -10 21 -25z m173 15 c7 -11 -16 -50 -29 -50
-5 0 -2 8 7 18 21 23 21 29 0 35 -16 4 -16 5 -1 6 9 0 19 -3 23 -9z m175 -3
c0 -7 -7 -22 -16 -33 -15 -18 -15 -18 -5 3 14 29 14 31 -6 36 -14 4 -12 5 5 6
12 0 22 -5 22 -12z m58 -25 c2 -15 0 -23 -4 -20 -4 4 -8 19 -10 34 -3 34 9 21
14 -14z m85 22 c-4 -12 -2 -15 8 -12 8 3 13 11 11 17 -1 7 2 10 8 6 14 -9 12
-40 -3 -54 -23 -19 -52 31 -30 52 11 11 13 8 6 -9z m774 -31 c-3 -10 -5 -2 -5
17 0 19 2 27 5 18 2 -10 2 -26 0 -35z m696 40 c-7 -2 -19 -2 -25 0 -7 3 -2 5
12 5 14 0 19 -2 13 -5z m-6122 -32 c-12 -12 -21 -18 -21 -14 0 10 33 44 37 39
3 -2 -5 -14 -16 -25z m409 6 c11 -5 9 -6 -4 -4 -11 1 -21 9 -23 17 -3 10 -2
11 4 4 4 -6 15 -14 23 -17z m341 -6 c-12 -12 -21 -16 -21 -10 0 12 32 40 38
34 2 -2 -6 -13 -17 -24z m516 -8 c-3 -10 -5 -4 -5 12 0 17 2 24 5 18 2 -7 2
-21 0 -30z m1790 0 c-3 -10 -5 -4 -5 12 0 17 2 24 5 18 2 -7 2 -21 0 -30z
m821 9 c2 -12 -2 -22 -8 -22 -6 0 -9 4 -5 9 3 5 -2 17 -12 26 -16 16 -15 17 3
13 11 -2 20 -13 22 -26z m340 3 c-3 -3 -9 2 -12 12 -6 14 -5 15 5 6 7 -7 10
-15 7 -18z m519 -6 c1 -19 1 -20 -4 -4 -3 11 -10 24 -17 28 -7 6 -6 7 4 4 8
-2 16 -14 17 -28z m113 27 c0 -3 -4 -8 -10 -11 -5 -3 -10 -1 -10 4 0 6 5 11
10 11 6 0 10 -2 10 -4z m1441 -19 c-10 -9 -11 -8 -5 6 3 10 9 15 12 12 3 -3 0
-11 -7 -18z m50 -6 c-12 -12 -21 -18 -21 -14 0 10 33 44 37 39 3 -2 -5 -14
-16 -25z m175 9 c8 0 14 -5 14 -10 0 -7 -6 -7 -20 0 -11 6 -20 16 -19 23 0 9
2 9 6 0 2 -7 11 -13 19 -13z m-6606 0 c0 -5 -2 -10 -4 -10 -3 0 -8 5 -11 10
-3 6 -1 10 4 10 6 0 11 -4 11 -10z m217 4 c-3 -3 -12 -4 -19 -1 -8 3 -5 6 6 6
11 1 17 -2 13 -5z m2076 -1 c-7 -2 -19 -2 -25 0 -7 3 -2 5 12 5 14 0 19 -2 13
-5z m520 0 c-7 -2 -19 -2 -25 0 -7 3 -2 5 12 5 14 0 19 -2 13 -5z m1480 -31
c7 -9 6 -11 -7 -6 -9 3 -16 16 -15 28 0 14 2 16 6 6 3 -8 10 -21 16 -28z m186
24 c9 -11 9 -16 0 -22 -7 -4 -9 -3 -5 4 3 6 -2 15 -11 21 -10 6 -13 11 -7 11
6 0 17 -6 23 -14z m1722 -13 c-12 -20 -14 -14 -5 12 4 9 9 14 11 11 3 -2 0
-13 -6 -23z m-3784 -5 c-3 -8 -6 -5 -6 6 -1 11 2 17 5 13 3 -3 4 -12 1 -19z
m223 18 c0 -2 -8 -10 -17 -17 -16 -13 -17 -12 -4 4 13 16 21 21 21 13z m1246
-15 c0 -11 -4 -17 -8 -15 -4 3 -8 12 -8 20 0 8 4 14 8 14 4 0 8 -9 8 -19z
m191 -3 c-3 -8 -6 -5 -6 6 -1 11 2 17 5 13 3 -3 4 -12 1 -19z m1100 0 c-3 -8
-6 -5 -6 6 -1 11 2 17 5 13 3 -3 4 -12 1 -19z m-373 -4 c3 -8 2 -12 -4 -9 -6
3 -10 10 -10 16 0 14 7 11 14 -7z m-728 -79 c4 -8 1 -22 -5 -29 -9 -11 -9 -15
1 -19 7 -3 2 -6 -11 -6 -23 -1 -23 0 -8 17 20 22 22 38 5 45 -10 4 -10 6 0 6
7 1 15 -6 18 -14z m62 -8 c2 -9 -1 -17 -7 -17 -6 0 -8 7 -5 15 4 8 1 15 -5 15
-6 0 -11 -5 -11 -12 0 -6 -3 -9 -6 -5 -9 9 6 29 19 24 7 -2 13 -11 15 -20z
m292 11 c-1 -7 -8 -24 -16 -38 -14 -23 -13 -13 2 24 3 9 -2 16 -13 19 -14 4
-14 5 5 6 12 0 22 -5 22 -11z m40 2 c-13 -8 -12 -11 4 -23 19 -14 15 -38 -7
-36 -9 0 -9 2 1 6 17 7 15 23 -3 23 -8 0 -15 9 -15 20 0 12 7 20 18 20 14 0
15 -2 2 -10z m130 -2 c-1 -7 -8 -24 -16 -38 -14 -23 -13 -13 2 24 3 9 -2 16
-13 19 -14 4 -14 5 5 6 12 0 22 -5 22 -11z m53 -50 c-4 -9 -43 2 -43 13 0 11
17 21 23 12 2 -5 2 -2 0 5 -2 8 0 19 4 25 7 12 23 -41 16 -55z m127 57 c0 -10
-30 -65 -35 -65 -3 0 1 12 7 26 10 21 9 27 -3 35 -11 7 -9 9 9 9 12 0 22 -2
22 -5z m55 -44 c-10 -33 -39 -22 -42 14 -2 25 -1 26 6 10 5 -11 7 -23 4 -27
-6 -12 15 -9 22 2 3 6 2 10 -2 10 -5 0 -9 9 -9 20 0 17 2 18 14 6 9 -8 11 -22
7 -35z m1725 23 c0 -8 -4 -14 -8 -14 -4 0 -8 9 -8 19 0 11 4 17 8 15 4 -3 8
-12 8 -20z m60 -9 c0 -19 -4 -35 -8 -35 -4 0 -6 16 -4 35 2 19 6 35 8 35 2 0
4 -16 4 -35z m-6749 2 c-10 -9 -11 -8 -5 6 3 10 9 15 12 12 3 -3 0 -11 -7 -18z
m166 -5 c-10 -10 -14 -22 -10 -27 5 -4 2 -5 -4 -1 -7 4 -13 17 -13 29 0 18 2
19 10 7 8 -12 10 -12 16 3 3 10 9 15 12 12 3 -2 -2 -13 -11 -23z m73 13 c0 -8
-4 -15 -10 -15 -5 0 -7 7 -4 15 4 8 8 15 10 15 2 0 4 -7 4 -15z m161 -8 c-10
-9 -11 -8 -5 6 3 10 9 15 12 12 3 -3 0 -11 -7 -18z m231 -7 c3 -17 0 -30 -6
-30 -6 0 -11 14 -11 30 0 17 3 30 6 30 4 0 9 -13 11 -30z m1215 -17 c-3 -10
-5 -2 -5 17 0 19 2 27 5 18 2 -10 2 -26 0 -35z m763 17 c0 -16 -4 -30 -8 -30
-4 0 -7 12 -6 28 3 32 3 32 9 32 3 0 5 -13 5 -30z m107 11 c0 -11 -5 -18 -9
-15 -4 3 -5 11 -1 19 7 21 12 19 10 -4z m1298 9 c-3 -5 1 -10 9 -10 9 0 16 -9
16 -20 0 -13 -7 -20 -20 -20 -16 0 -20 7 -20 30 0 17 5 30 11 30 5 0 7 -4 4
-10z m2496 -13 c-10 -9 -11 -8 -5 6 3 10 9 15 12 12 3 -3 0 -11 -7 -18z
m-6449 -29 c-6 -6 -7 0 -4 19 5 21 7 23 10 9 2 -10 0 -22 -6 -28z m41 29 c8 5
8 2 0 -9 -7 -8 -9 -19 -5 -23 4 -5 1 -5 -5 -1 -7 4 -13 17 -12 29 0 12 3 16 6
9 2 -6 10 -9 16 -5z m229 -1 c7 4 8 2 4 -4 -11 -18 -26 -14 -25 6 0 10 3 12 6
4 2 -6 10 -9 15 -6z m25 -8 c-3 -8 -6 -5 -6 6 -1 11 2 17 5 13 3 -3 4 -12 1
-19z m25 -3 c3 -13 1 -22 -3 -19 -9 5 -13 44 -5 44 2 0 6 -11 8 -25z m1970 11
c7 4 8 2 4 -4 -11 -18 -26 -14 -25 6 0 10 3 12 6 4 2 -6 10 -9 15 -6z m25 -8
c-3 -8 -6 -5 -6 6 -1 11 2 17 5 13 3 -3 4 -12 1 -19z m53 -5 c0 -20 -3 -24 -9
-14 -5 8 -14 10 -22 6 -8 -5 -5 1 6 13 26 27 25 27 25 -5z m347 10 c2 -6 -5
-13 -17 -16 -12 -3 -20 0 -20 7 0 26 29 33 37 9z m1321 0 c2 -8 -5 -13 -20
-13 -19 0 -20 -2 -8 -11 12 -9 12 -10 1 -7 -25 7 -24 28 1 29 22 0 22 1 3 10
-19 8 -19 9 -1 6 11 -1 21 -8 24 -14z m332 7 c0 -5 -4 -10 -10 -10 -5 0 -10 5
-10 10 0 6 5 10 10 10 6 0 10 -4 10 -10z m2150 -21 c0 -10 -5 -19 -11 -19 -5
0 -7 5 -4 10 3 6 2 10 -4 10 -5 0 -12 -6 -14 -12 -4 -10 -6 -10 -6 0 -1 7 6
15 14 18 8 4 12 11 8 17 -3 6 -1 7 5 3 7 -4 12 -16 12 -27z m143 11 c-3 -12
-8 -19 -11 -16 -5 6 5 36 12 36 2 0 2 -9 -1 -20z m-6688 0 c3 -5 1 -10 -4 -10
-6 0 -11 5 -11 10 0 6 2 10 4 10 3 0 8 -4 11 -10z m551 -1 c3 -6 1 -16 -5 -22
-9 -9 -11 -8 -6 5 4 11 0 18 -12 21 -15 4 -16 5 -1 6 9 0 20 -4 24 -10z m1960
0 c3 -6 1 -16 -6 -22 -10 -9 -11 -9 -5 2 4 8 2 17 -6 22 -9 6 -10 9 -2 9 6 0
15 -5 19 -11z m1839 -9 c0 -8 -9 -16 -20 -17 -16 -1 -16 -1 -2 3 24 8 22 28
-3 21 -11 -3 -20 -1 -20 5 0 5 10 8 23 6 12 -2 22 -10 22 -18z m-1088 -12 c-3
-8 -6 -5 -6 6 -1 11 2 17 5 13 3 -3 4 -12 1 -19z m963 7 c9 5 11 4 6 -3 -11
-18 -36 -14 -36 6 0 13 2 14 9 3 5 -8 14 -10 21 -6z m2234 -1 c3 -8 2 -12 -4
-9 -6 3 -10 10 -10 16 0 14 7 11 14 -7z m-5681 -11 c-7 -2 -19 -2 -25 0 -7 3
-2 5 12 5 14 0 19 -2 13 -5z m-805 -84 c3 -12 2 -12 -6 0 -6 8 -15 10 -22 6
-9 -5 -11 -4 -6 4 10 15 28 10 34 -10z m61 -12 c0 -12 -3 -16 -6 -9 -2 6 -10
9 -16 5 -8 -5 -8 -2 0 9 7 8 9 19 5 23 -4 5 -1 5 6 1 6 -4 12 -17 11 -29z m34
26 c-7 -2 -13 -14 -14 -26 0 -12 -3 -16 -6 -9 -7 18 4 42 19 41 10 0 10 -2 1
-6z m60 0 c-7 -2 -14 -17 -14 -31 -1 -18 -3 -21 -6 -9 -6 24 3 47 19 46 10 0
10 -2 1 -6z m75 -14 c3 -12 2 -12 -6 0 -6 8 -15 10 -22 6 -9 -5 -11 -4 -6 4
10 15 28 10 34 -10z m99 -26 c-3 -10 -5 -2 -5 17 0 19 2 27 5 18 2 -10 2 -26
0 -35z m44 15 c-3 -21 -6 -26 -9 -15 -3 17 3 47 11 47 2 0 1 -15 -2 -32z m208
-1 c0 -12 -3 -16 -6 -9 -2 6 -10 9 -16 5 -8 -5 -8 -2 0 9 7 8 9 19 5 23 -4 5
-1 5 6 1 6 -4 12 -17 11 -29z m34 26 c-7 -2 -13 -14 -14 -26 0 -12 -3 -16 -6
-9 -7 18 4 42 19 41 10 0 10 -2 1 -6z m1744 -40 c-3 -10 -5 -2 -5 17 0 19 2
27 5 18 2 -10 2 -26 0 -35z m183 38 c0 -5 -9 -7 -20 -4 -11 3 -20 7 -20 9 0 2
9 4 20 4 11 0 20 -4 20 -9z m47 3 c-3 -3 -12 -4 -19 -1 -8 3 -5 6 6 6 11 1 17
-2 13 -5z m1439 -26 c2 -22 0 -25 -11 -15 -8 8 -10 16 -3 24 6 8 3 13 -9 17
-16 4 -16 5 1 3 12 -1 20 -11 22 -29z m174 15 c0 -10 -4 -14 -8 -8 -4 6 -11
13 -16 18 -5 4 -2 7 7 7 10 0 17 -8 17 -17z m44 10 c-5 -5 -12 -12 -16 -18 -4
-6 -8 -2 -8 8 0 9 7 17 17 17 9 0 12 -3 7 -7z m129 0 c-7 -2 -19 -2 -25 0 -7
3 -2 5 12 5 14 0 19 -2 13 -5z m55 -25 c-2 -24 -8 -33 -23 -35 -16 -1 -16 -1
-2 3 20 6 23 24 5 24 -9 0 -8 4 2 10 13 9 13 11 0 20 -13 8 -12 10 3 10 15 0
18 -7 15 -32z m117 -2 c0 -36 -20 -45 -35 -17 -9 17 -8 21 4 21 10 0 13 -6 10
-15 -4 -8 -1 -15 5 -15 6 0 10 11 9 25 -2 16 -7 24 -15 21 -7 -3 -13 -1 -13 5
0 6 8 9 18 7 11 -2 17 -13 17 -32z m175 19 c0 -9 -7 -18 -15 -21 -8 -4 -15
-11 -15 -16 0 -6 8 -7 18 -3 13 5 14 3 5 -6 -6 -6 -16 -8 -22 -5 -12 8 -15 49
-4 59 12 13 33 7 33 -8z m55 4 c4 -6 -1 -16 -11 -24 -11 -7 -15 -17 -11 -21 4
-5 13 -2 18 6 9 13 10 13 7 1 -6 -21 -27 -25 -34 -6 -4 9 1 22 12 31 18 14 18
15 1 10 -11 -3 -16 -2 -12 4 8 13 22 13 30 -1z m123 -19 c2 -18 0 -21 -6 -11
-12 17 -27 -3 -16 -21 5 -9 2 -9 -9 1 -9 7 -17 21 -17 30 0 12 2 13 9 3 6 -10
10 -10 20 2 10 12 9 15 -6 20 -15 4 -15 5 2 3 13 -2 21 -11 23 -27z m57 9 c8
-24 -16 -55 -34 -45 -12 8 -15 49 -4 59 13 14 32 7 38 -14z m855 11 c0 -5 -5
-10 -11 -10 -5 0 -7 5 -4 10 3 6 8 10 11 10 2 0 4 -4 4 -10z m180 1 c0 -5 -9
-7 -20 -4 -11 3 -20 7 -20 9 0 2 9 4 20 4 11 0 20 -4 20 -9z m56 -2 c3 -6 -4
-21 -17 -33 -22 -20 -22 -20 -6 0 21 26 21 31 0 37 -16 4 -16 5 -1 6 9 0 20
-4 24 -10z m-986 -3 c0 -3 -4 -8 -10 -11 -5 -3 -10 -1 -10 4 0 6 5 11 10 11 6
0 10 -2 10 -4z m-5043 -28 c-3 -8 -6 -5 -6 6 -1 11 2 17 5 13 3 -3 4 -12 1
-19z m103 14 c0 -5 -7 -9 -15 -9 -8 0 -12 4 -9 9 3 4 9 8 15 8 5 0 9 -4 9 -8z
m417 -14 c-3 -8 -6 -5 -6 6 -1 11 2 17 5 13 3 -3 4 -12 1 -19z m1310 0 c-3 -8
-6 -5 -6 6 -1 11 2 17 5 13 3 -3 4 -12 1 -19z m2227 -20 c8 -6 8 -8 0 -8 -18
0 -37 28 -28 42 6 10 10 8 12 -7 3 -11 9 -23 16 -27z m536 17 c0 -7 -8 -16
-17 -19 -20 -8 -40 9 -22 19 8 5 10 4 5 -3 -4 -7 -2 -12 3 -12 10 0 15 14 12
33 -1 5 3 6 9 2 5 -3 10 -12 10 -20z m-4637 0 c-3 -9 -8 -14 -10 -11 -3 3 -2
9 2 15 9 16 15 13 8 -4z m233 -5 c0 -12 -4 -16 -9 -11 -5 5 -6 14 -3 20 10 15
12 14 12 -9z m2041 -2 c-3 -8 -6 -5 -6 6 -1 11 2 17 5 13 3 -3 4 -12 1 -19z
m343 18 c0 -2 -8 -10 -17 -17 -16 -13 -17 -12 -4 4 13 16 21 21 21 13z m1670
-11 c0 -8 -2 -15 -4 -15 -2 0 -6 7 -10 15 -3 8 -1 15 4 15 6 0 10 -7 10 -15z
m1267 -7 c-3 -8 -6 -5 -6 6 -1 11 2 17 5 13 3 -3 4 -12 1 -19z m-1677 8 c0 -3
-4 -8 -10 -11 -5 -3 -10 -1 -10 4 0 6 5 11 10 11 6 0 10 -2 10 -4z m336 -5
c-4 -5 0 -12 6 -14 8 -3 6 -6 -4 -6 -18 -1 -24 10 -11 22 9 10 15 8 9 -2z
m874 5 c0 -3 -4 -8 -10 -11 -5 -3 -10 -1 -10 4 0 6 5 11 10 11 6 0 10 -2 10
-4z m60 0 c0 -3 -4 -8 -10 -11 -5 -3 -10 -1 -10 4 0 6 5 11 10 11 6 0 10 -2
10 -4z m700 0 c0 -3 -4 -8 -10 -11 -5 -3 -10 -1 -10 4 0 6 5 11 10 11 6 0 10
-2 10 -4z m-5609 -125 c-12 -12 -21 -16 -21 -11 0 13 34 48 38 39 2 -4 -6 -17
-17 -28z m1032 24 c-3 -9 -8 -14 -10 -11 -3 3 -2 9 2 15 9 16 15 13 8 -4z
m169 -12 c-3 -16 -7 -22 -10 -15 -4 13 4 42 11 42 2 0 2 -12 -1 -27z m438 -3
c0 -10 -3 -21 -7 -23 -5 -3 -8 8 -8 23 0 15 3 26 8 23 4 -2 7 -13 7 -23z m146
21 c-3 -5 1 -11 9 -15 8 -3 14 -13 14 -23 -1 -17 -2 -17 -6 0 -2 9 -8 17 -13
17 -5 0 -11 -8 -13 -17 -3 -12 -5 -9 -6 8 0 14 2 29 6 32 9 10 15 9 9 -2z
m2010 0 c-3 -5 1 -11 9 -15 8 -3 14 -13 14 -23 -1 -17 -2 -17 -6 0 -2 9 -8 17
-13 17 -5 0 -11 -8 -13 -17 -3 -12 -5 -9 -6 8 0 14 2 29 6 32 9 10 15 9 9 -2z
m48 -6 c-4 -10 0 -15 11 -15 11 0 15 5 11 16 -3 8 -2 12 4 9 17 -11 11 -35 -9
-35 -22 0 -35 15 -26 30 9 15 15 12 9 -5z m121 5 c-3 -5 2 -11 12 -11 17 -1
17 -2 0 -6 -11 -3 -16 -11 -13 -19 3 -9 1 -12 -4 -9 -11 7 -13 38 -3 48 10 10
15 8 8 -3z m229 -7 c-5 -15 -3 -15 10 1 9 11 16 17 16 14 0 -4 3 -13 6 -21 4
-10 -1 -15 -13 -14 -10 1 -17 -4 -15 -11 1 -8 -2 -11 -8 -7 -11 7 -14 38 -3
48 11 11 13 8 7 -10z m122 8 c-3 -5 1 -11 9 -15 8 -3 14 -13 14 -23 -1 -17 -2
-17 -6 0 -2 9 -8 17 -13 17 -5 0 -11 -8 -13 -17 -3 -12 -5 -9 -6 8 0 14 2 29
6 32 9 10 15 9 9 -2z m169 -1 c-3 -5 1 -10 9 -10 9 0 16 -4 16 -10 0 -5 -8 -6
-17 -3 -13 5 -15 2 -10 -11 4 -10 3 -15 -3 -11 -11 7 -13 38 -3 48 10 10 15 8
8 -3z m76 -43 c-10 -10 -11 -8 -6 6 5 12 2 17 -9 17 -9 0 -16 7 -16 15 0 13 4
12 22 -5 18 -16 19 -23 9 -33z m-4771 33 c0 -5 -5 -10 -11 -10 -5 0 -7 5 -4
10 3 6 8 10 11 10 2 0 4 -4 4 -10z m53 -31 c-6 -6 -9 -1 -7 13 3 33 6 36 11
14 3 -10 1 -22 -4 -27z m30 26 c4 -8 2 -17 -3 -20 -6 -4 -10 3 -10 14 0 25 6
27 13 6z m75 2 c18 7 17 5 -10 -16 -16 -12 -18 -11 -17 10 0 13 3 19 5 12 3
-7 13 -9 22 -6z m215 -2 c4 -8 2 -17 -3 -20 -6 -4 -10 3 -10 14 0 25 6 27 13
6z m1123 -3 c1 -7 0 -8 -3 -2 -9 18 -23 11 -24 -12 0 -13 -3 -17 -6 -10 -7 18
5 44 19 40 6 -2 13 -10 14 -16z m2762 0 c2 -7 -3 -12 -11 -12 -9 0 -18 -6 -20
-12 -3 -7 -6 -4 -6 8 -1 34 27 46 37 16z m342 14 c0 -2 -7 -7 -16 -10 -8 -3
-12 -2 -9 4 6 10 25 14 25 6z m350 -11 c0 -8 -7 -15 -16 -15 -9 0 -12 -5 -8
-12 5 -10 4 -10 -6 -1 -7 6 -10 19 -7 27 8 20 37 21 37 1z m100 8 c0 -5 -5
-15 -10 -23 -8 -12 -10 -11 -10 8 0 12 5 22 10 22 6 0 10 -3 10 -7z m-5025
-13 c3 -5 1 -10 -4 -10 -6 0 -11 5 -11 10 0 6 2 10 4 10 3 0 8 -4 11 -10z m95
0 c0 -5 -2 -10 -4 -10 -3 0 -8 5 -11 10 -3 6 -1 10 4 10 6 0 11 -4 11 -10z
m767 -12 c-3 -8 -6 -5 -6 6 -1 11 2 17 5 13 3 -3 4 -12 1 -19z m236 2 c3 -11
1 -18 -4 -14 -5 3 -9 12 -9 20 0 20 7 17 13 -6z m145 -11 c-3 -8 -7 -3 -11 10
-4 17 -3 21 5 13 5 -5 8 -16 6 -23z m547 21 c3 -5 1 -10 -4 -10 -6 0 -11 5
-11 10 0 6 2 10 4 10 3 0 8 -4 11 -10z m2551 -10 c0 -11 -6 -20 -13 -20 -16 0
-17 12 -1 28 7 7 12 12 13 12 0 0 1 -9 1 -20z m530 9 c3 -6 1 -16 -5 -22 -9
-9 -11 -8 -6 6 5 12 2 17 -10 17 -11 0 -15 -5 -11 -16 3 -8 2 -12 -4 -9 -6 3
-10 13 -10 21 0 16 36 19 46 3z m-4929 -21 c-3 -8 -6 -5 -6 6 -1 11 2 17 5 13
3 -3 4 -12 1 -19z m1644 -1 c-10 -9 -11 -8 -5 6 3 10 9 15 12 12 3 -3 0 -11
-7 -18z m163 8 c-4 -8 -11 -15 -16 -15 -6 0 -5 6 2 15 7 8 14 15 16 15 2 0 1
-7 -2 -15z m1956 5 c0 -5 -4 -10 -10 -10 -5 0 -10 5 -10 10 0 6 5 10 10 10 6
0 10 -4 10 -10z m60 0 c0 -5 -4 -10 -10 -10 -5 0 -10 5 -10 10 0 6 5 10 10 10
6 0 10 -4 10 -10z m-25 -21 c4 -6 13 -8 21 -5 10 4 11 0 2 -19 -8 -17 -8 -28
-1 -37 16 -20 10 -62 -9 -66 -9 -2 -22 6 -28 17 -6 12 -18 21 -28 21 -15 1
-15 2 2 15 18 13 18 15 3 15 -10 0 -20 -7 -23 -15 -6 -14 -8 -13 -19 1 -17 24
3 76 26 69 10 -3 20 -1 24 5 8 13 22 13 30 -1z m-3767 -80 c3 -12 2 -12 -6 0
-6 8 -15 10 -22 6 -9 -5 -11 -4 -6 4 10 15 28 10 34 -10z m166 -9 c-6 -6 -10
-3 -10 10 0 13 4 16 10 10 7 -7 7 -13 0 -20z m64 9 c3 -12 2 -12 -6 0 -6 8
-15 10 -22 6 -9 -5 -11 -4 -6 4 10 15 28 10 34 -10z m689 15 c-3 -3 -12 -4
-19 -1 -8 3 -5 6 6 6 11 1 17 -2 13 -5z m580 -25 c1 -24 1 -24 -4 -1 -3 16
-10 22 -19 18 -9 -3 -12 -1 -9 5 11 17 30 4 32 -22z m110 25 c-3 -3 -12 -4
-19 -1 -8 3 -5 6 6 6 11 1 17 -2 13 -5z m411 -15 c3 -12 2 -12 -6 0 -6 8 -15
10 -22 6 -9 -5 -11 -4 -6 4 10 15 28 10 34 -10z m167 -14 c0 -17 -6 -30 -15
-32 -13 -4 -13 -3 0 7 12 9 13 12 1 17 -11 5 -11 7 0 14 12 8 11 11 -1 20 -13
9 -13 10 0 6 9 -2 15 -15 15 -32z m62 -17 c-2 -13 -4 -5 -4 17 -1 22 1 32 4
23 2 -10 2 -28 0 -40z m1608 16 c0 -21 -5 -29 -20 -31 -16 -1 -16 -1 -2 3 9 3
17 13 17 22 0 12 -3 13 -12 4 -16 -16 -28 -15 -28 1 0 17 22 38 35 34 5 -2 10
-17 10 -33z m232 20 c7 -19 -7 -46 -28 -52 -12 -3 -12 -2 0 6 21 15 24 52 5
52 -11 0 -14 -5 -9 -17 5 -14 3 -15 -6 -6 -6 6 -8 16 -5 22 11 16 36 13 43 -5z
m104 7 c-21 -13 -26 -55 -6 -47 8 3 15 1 15 -5 0 -18 -35 -5 -38 14 -4 20 14
47 32 47 6 0 5 -4 -3 -9z m179 -1 c0 -5 -7 -7 -15 -4 -8 4 -15 8 -15 10 0 2 7
4 15 4 8 0 15 -4 15 -10z m64 -13 c8 -12 7 -21 -6 -33 -20 -20 -38 -11 -38 20
0 39 23 46 44 13z m116 14 c0 -5 -9 -7 -20 -4 -11 3 -20 7 -20 9 0 2 9 4 20 4
11 0 20 -4 20 -9z m53 -18 c6 -34 1 -43 -21 -42 -15 1 -15 2 1 6 18 5 24 23 6
23 -5 0 -7 5 -3 11 3 6 0 15 -7 20 -11 7 -11 9 2 9 10 0 19 -11 22 -27z m117
15 c-1 -7 -8 -24 -16 -38 -14 -23 -13 -13 2 24 3 9 -2 16 -13 19 -14 4 -14 5
5 6 12 0 22 -5 22 -11z m55 -24 c0 -32 -27 -42 -33 -11 -2 10 3 17 12 17 9 0
16 5 16 11 0 6 -7 8 -16 5 -9 -3 -12 -2 -9 5 12 19 30 3 30 -27z m115 32 c0
-2 -7 -7 -16 -10 -8 -3 -12 -2 -9 4 6 10 25 14 25 6z m48 -3 c-22 -6 -24 -23
-2 -23 23 0 13 -34 -11 -37 -16 -1 -16 -1 -2 3 21 7 22 13 0 29 -19 14 -9 36
15 34 15 -1 15 -2 0 -6z m-4784 -56 c7 -6 6 -7 -4 -4 -8 2 -16 16 -17 33 -1
25 0 26 4 4 3 -14 10 -29 17 -33z m803 6 c-3 -10 -5 -2 -5 17 0 19 2 27 5 18
2 -10 2 -26 0 -35z m712 20 c-2 -24 -2 -25 -6 -5 -3 13 -9 19 -15 16 -7 -4 -8
-2 -4 4 13 21 26 13 25 -15z m2348 7 c8 0 13 -7 11 -17 -6 -30 -33 -21 -35 12
-1 17 0 24 3 18 3 -7 12 -13 21 -13z m-3985 -4 c7 4 8 2 4 -4 -11 -18 -26 -14
-25 6 0 10 3 12 6 4 2 -6 10 -9 15 -6z m25 -8 c-3 -8 -6 -5 -6 6 -1 11 2 17 5
13 3 -3 4 -12 1 -19z m37 -21 c7 -6 6 -7 -4 -4 -8 2 -16 14 -17 28 -1 19 -1
20 4 4 3 -11 10 -24 17 -28z m20 35 c3 -5 -1 -9 -9 -9 -8 0 -12 4 -9 9 3 4 7
8 9 8 2 0 6 -4 9 -8z m1310 -35 c7 -6 6 -7 -4 -4 -8 2 -16 14 -17 28 -1 19 -1
20 4 4 3 -11 10 -24 17 -28z m398 29 c7 4 8 2 4 -4 -11 -18 -26 -14 -25 6 0
10 3 12 6 4 2 -6 10 -9 15 -6z m25 -8 c-3 -8 -6 -5 -6 6 -1 11 2 17 5 13 3 -3
4 -12 1 -19z m513 12 c0 -5 -5 -10 -11 -10 -5 0 -7 5 -4 10 3 6 8 10 11 10 2
0 4 -4 4 -10z m35 -14 c0 -15 -4 -21 -9 -16 -5 5 -6 16 -3 24 9 22 12 20 12
-8z m1855 14 c8 13 10 12 10 -2 0 -10 -8 -18 -17 -19 -16 0 -15 -2 2 -10 l20
-9 -20 3 c-13 1 -21 11 -23 27 -2 20 -1 22 8 10 9 -13 11 -13 20 0z m-3332
-17 c-2 -9 -10 -18 -18 -20 -12 -4 -13 -3 -1 5 7 5 10 15 7 21 -4 6 -2 11 4
11 6 0 10 -8 8 -17z m178 -12 c-4 -6 -13 -11 -19 -11 -8 0 -7 3 2 9 8 5 10 14
6 22 -6 11 -5 11 5 2 7 -6 9 -16 6 -22z m165 -4 c-8 -8 -14 -8 -23 2 -11 10
-10 11 5 6 12 -5 17 -2 18 11 0 12 2 14 6 6 3 -8 0 -19 -6 -25z m3100 19 c-10
-11 -8 -15 6 -19 14 -4 13 -5 -4 -6 -25 -1 -29 9 -11 27 17 17 23 15 9 -2z
m509 10 c0 -3 -4 -8 -10 -11 -5 -3 -10 -1 -10 4 0 6 5 11 10 11 6 0 10 -2 10
-4z m26 -25 c-4 -6 -15 -10 -24 -10 -15 1 -14 2 1 6 12 3 16 10 12 21 -5 13
-3 14 6 5 6 -6 8 -16 5 -22z m-4905 4 c11 6 11 5 2 -5 -12 -14 -33 -6 -33 13
0 8 3 7 9 -2 5 -8 14 -10 22 -6z m230 0 c11 6 11 5 2 -5 -12 -14 -33 -6 -33
13 0 8 3 7 9 -2 5 -8 14 -10 22 -6z m1790 0 c11 6 11 5 2 -5 -12 -14 -33 -6
-33 13 0 8 3 7 9 -2 5 -8 14 -10 22 -6z m69 5 c0 -5 -2 -10 -4 -10 -3 0 -8 5
-11 10 -3 6 -1 10 4 10 6 0 11 -4 11 -10z m1650 0 c0 -5 -4 -10 -10 -10 -5 0
-10 5 -10 10 0 6 5 10 10 10 6 0 10 -4 10 -10z m1910 6 c0 -3 -4 -8 -10 -11
-5 -3 -10 -1 -10 4 0 6 5 11 10 11 6 0 10 -2 10 -4z m400 -6 c0 -5 -4 -10 -10
-10 -5 0 -10 5 -10 10 0 6 5 10 10 10 6 0 10 -4 10 -10z m-2319 -20 c17 0 18
-3 9 -21 -7 -11 -9 -27 -6 -35 3 -8 1 -14 -4 -14 -6 0 -10 -12 -11 -27 l-1
-28 -11 25 c-20 42 -27 49 -42 43 -8 -3 -15 -13 -16 -22 0 -13 -2 -13 -6 -1
-3 8 -9 17 -13 20 -12 8 8 50 27 56 10 3 25 9 33 13 8 5 17 5 18 0 2 -5 12 -9
23 -9z m-1938 3 c-7 -2 -19 -2 -25 0 -7 3 -2 5 12 5 14 0 19 -2 13 -5z m2477
-88 c0 -19 -4 -35 -8 -35 -6 0 -7 21 -3 63 1 4 3 7 6 7 3 0 5 -16 5 -35z
m-3923 -22 c-3 -10 -5 -2 -5 17 0 19 2 27 5 18 2 -10 2 -26 0 -35z m756 40
c-7 -2 -19 -2 -25 0 -7 3 -2 5 12 5 14 0 19 -2 13 -5z m54 -15 c-3 -8 -6 -5
-6 6 -1 11 2 17 5 13 3 -3 4 -12 1 -19z m123 15 c-1 -13 -29 -59 -29 -48 -1 6
4 17 9 25 7 11 5 17 -8 22 -14 5 -13 7 6 7 12 1 22 -2 22 -6z m219 -21 c-5 -2
-9 -11 -10 -20 0 -13 -2 -13 -8 3 -12 29 -3 48 14 32 7 -7 9 -13 4 -15z m124
21 c-7 -2 -19 -2 -25 0 -7 3 -2 5 12 5 14 0 19 -2 13 -5z m54 -15 c-3 -8 -6
-5 -6 6 -1 11 2 17 5 13 3 -3 4 -12 1 -19z m183 -10 c0 -26 -9 -19 -15 11 -2
12 0 19 6 16 5 -4 9 -16 9 -27z m153 25 c-7 -2 -14 -17 -14 -31 -1 -18 -3 -21
-6 -9 -6 24 3 47 19 46 10 0 10 -2 1 -6z m77 -19 c0 -8 -9 -14 -22 -13 -19 1
-19 2 -5 6 11 3 16 11 13 19 -3 9 -1 12 4 9 6 -3 10 -13 10 -21z m1207 -21
c-3 -10 -5 -2 -5 17 0 19 2 27 5 18 2 -10 2 -26 0 -35z m513 17 c0 -10 -5 -22
-12 -26 -7 -4 -8 -3 -4 4 4 7 0 12 -11 13 -17 1 -17 2 0 6 11 3 16 11 13 19
-3 9 -1 12 4 9 6 -3 10 -15 10 -25z m60 0 c0 -10 -4 -22 -10 -25 -6 -3 -7 1
-4 10 5 11 2 14 -10 9 -9 -3 -13 -11 -9 -17 3 -6 1 -7 -5 -3 -18 11 -14 34 6
32 9 0 16 5 14 12 -1 8 2 11 8 7 5 -3 10 -15 10 -25z m167 -5 c2 -25 1 -26 -6
-10 -5 11 -6 24 -3 29 3 5 -2 7 -11 3 -10 -3 -17 -2 -17 4 0 6 8 9 18 7 11 -2
18 -14 19 -33z m173 25 c0 -5 -2 -10 -4 -10 -3 0 -8 5 -11 10 -3 6 -1 10 4 10
6 0 11 -4 11 -10z m172 -15 c3 -14 2 -27 -1 -30 -4 -2 -8 10 -9 26 -3 36 4 38
10 4z m166 -14 c-7 -11 -17 -21 -22 -21 -5 0 -1 9 8 19 11 12 15 25 11 33 -6
10 -5 10 4 2 10 -9 10 -16 -1 -33z m182 26 c0 -7 -7 -22 -16 -33 -15 -18 -15
-18 -5 3 14 29 14 31 -6 36 -14 4 -12 5 5 6 12 0 22 -5 22 -12z m143 -3 c-4
-12 -2 -15 8 -12 8 3 13 11 11 17 -1 7 2 10 8 6 13 -8 13 -42 0 -50 -6 -3 -7
1 -4 10 5 11 2 14 -10 9 -9 -3 -13 -11 -9 -17 3 -6 1 -7 -5 -3 -13 8 -16 39
-5 49 11 11 13 8 6 -9z m-1193 2 c0 -3 -4 -8 -10 -11 -5 -3 -10 -1 -10 4 0 6
5 11 10 11 6 0 10 -2 10 -4z m407 -2 c-3 -3 -12 -4 -19 -1 -8 3 -5 6 6 6 11 1
17 -2 13 -5z m351 -19 c-3 -3 -9 2 -12 12 -6 14 -5 15 5 6 7 -7 10 -15 7 -18z
m519 -6 c1 -19 1 -20 -4 -4 -3 11 -10 24 -17 28 -7 6 -6 7 4 4 8 -2 16 -14 17
-28z m513 27 c0 -3 -4 -8 -10 -11 -5 -3 -10 -1 -10 4 0 6 5 11 10 11 6 0 10
-2 10 -4z m-4053 -28 c-3 -8 -6 -5 -6 6 -1 11 2 17 5 13 3 -3 4 -12 1 -19z
m409 -3 c1 -8 -2 -13 -7 -9 -5 3 -9 12 -9 21 0 19 13 9 16 -12z m861 3 c-3 -8
-6 -5 -6 6 -1 11 2 17 5 13 3 -3 4 -12 1 -19z m520 0 c-3 -8 -6 -5 -6 6 -1 11
2 17 5 13 3 -3 4 -12 1 -19z m1200 -10 c-3 -7 -5 -2 -5 12 0 14 2 19 5 13 2
-7 2 -19 0 -25z m383 4 c0 -15 -2 -15 -10 -2 -13 20 -13 33 0 25 6 -3 10 -14
10 -23z m-3000 14 c0 -2 -8 -10 -17 -17 -16 -13 -17 -12 -4 4 13 16 21 21 21
13z m237 -18 c-3 -8 -6 -5 -6 6 -1 11 2 17 5 13 3 -3 4 -12 1 -19z m1603 12
c0 -5 -5 -10 -11 -10 -5 0 -7 5 -4 10 3 6 8 10 11 10 2 0 4 -4 4 -10z m117
-12 c-3 -8 -6 -5 -6 6 -1 11 2 17 5 13 3 -3 4 -12 1 -19z m267 7 c-4 -8 -8
-15 -10 -15 -2 0 -4 7 -4 15 0 8 4 15 10 15 5 0 7 -7 4 -15z m86 0 c0 -8 -4
-15 -8 -15 -5 0 -9 7 -9 15 0 8 4 15 9 15 4 0 8 -7 8 -15z m107 -7 c-3 -8 -6
-5 -6 6 -1 11 2 17 5 13 3 -3 4 -12 1 -19z m408 13 c3 -5 2 -12 -3 -15 -5 -3
-9 1 -9 9 0 17 3 19 12 6z m439 -6 c-4 -8 -8 -15 -10 -15 -2 0 -4 7 -4 15 0 8
4 15 10 15 5 0 7 -7 4 -15z m596 5 c0 -5 -5 -10 -11 -10 -5 0 -7 5 -4 10 3 6
8 10 11 10 2 0 4 -4 4 -10z m-1979 -57 c-6 -12 -4 -21 7 -29 15 -11 15 -14 -1
-32 -18 -20 -18 -20 0 -25 16 -4 16 -5 1 -6 -11 -1 -23 12 -33 35 -10 25 -20
35 -32 32 -22 -4 -31 -57 -12 -69 20 -12 -9 -59 -36 -59 -11 0 -26 -5 -33 -12
-9 -9 -12 -9 -12 0 0 7 -9 12 -20 12 -11 0 -20 -5 -20 -12 0 -6 -2 -9 -6 -6
-3 3 8 27 25 52 16 26 32 42 36 37 3 -6 15 -11 26 -11 14 0 19 7 19 28 0 15
-5 33 -10 38 -8 8 -7 19 1 37 10 21 17 25 35 21 16 -4 26 -1 30 9 5 13 8 13
25 -4 14 -14 17 -24 10 -36z m1263 41 c3 -8 2 -12 -4 -9 -6 3 -10 10 -10 16 0
14 7 11 14 -7z m-3427 -116 c-2 -13 -4 -5 -4 17 -1 22 1 32 4 23 2 -10 2 -28
0 -40z m2335 40 c-15 -15 -16 -31 0 -22 7 4 8 3 4 -4 -10 -16 -26 -15 -26 1 0
13 19 37 29 37 3 0 0 -5 -7 -12z m257 -27 c0 -10 -4 -8 -10 8 -8 20 -11 22
-27 10 -15 -13 -16 -12 -3 4 10 13 17 15 27 6 8 -6 14 -19 13 -28z m351 0 c0
-12 -2 -13 -9 -3 -6 10 -10 10 -20 -2 -10 -12 -9 -15 6 -20 15 -4 15 -5 -2 -3
-13 2 -21 11 -23 27 -2 18 0 21 6 11 12 -17 27 3 16 22 -5 8 -2 8 9 -2 9 -7
17 -21 17 -30z m110 30 c0 -5 -9 -7 -20 -4 -11 3 -20 7 -20 9 0 2 9 4 20 4 11
0 20 -4 20 -9z m53 -53 c-4 -9 -43 2 -43 13 0 4 5 11 12 15 7 4 8 3 4 -4 -4
-7 -2 -12 4 -12 6 0 10 8 9 18 -3 32 3 37 10 7 4 -16 6 -33 4 -37z m117 50
c-1 -7 -8 -24 -16 -38 -14 -23 -13 -13 2 24 3 9 -2 16 -13 19 -14 4 -14 5 5 6
12 0 22 -5 22 -11z m222 -23 c2 -22 0 -35 -8 -35 -7 0 -9 10 -6 25 3 17 0 25
-9 25 -11 0 -11 2 1 10 8 5 16 10 16 10 1 0 4 -16 6 -35z m-3630 -5 c3 -17 0
-30 -6 -30 -6 0 -11 14 -11 30 0 17 3 30 6 30 4 0 9 -13 11 -30z m103 20 c-3
-5 2 -11 12 -11 17 -1 17 -2 0 -6 -11 -3 -16 -11 -13 -19 3 -9 1 -12 -4 -9
-11 7 -13 38 -3 48 10 10 15 8 8 -3z m222 -12 c-3 -8 -6 -5 -6 6 -1 11 2 17 5
13 3 -3 4 -12 1 -19z m2078 12 c-3 -5 1 -10 9 -10 9 0 16 -9 16 -20 0 -23 -28
-27 -36 -5 -6 16 1 45 11 45 4 0 3 -4 0 -10z m290 0 c-3 -5 1 -10 9 -10 9 0
16 -9 16 -20 0 -13 -7 -20 -20 -20 -16 0 -20 7 -20 30 0 17 5 30 11 30 5 0 7
-4 4 -10z m170 0 c-3 -5 2 -11 12 -11 17 -1 17 -2 0 -6 -11 -3 -16 -11 -13
-19 3 -9 1 -12 -4 -9 -11 7 -13 38 -3 48 10 10 15 8 8 -3z m890 -39 c-14 -23
-35 -11 -35 19 l0 31 21 -20 c12 -11 18 -24 14 -30z m-5008 17 c-3 -8 -6 -5
-6 6 -1 11 2 17 5 13 3 -3 4 -12 1 -19z m1212 -11 c0 -9 -2 -9 -6 1 -2 6 -11
12 -19 12 -8 0 -14 5 -14 10 0 7 6 7 20 0 11 -6 20 -16 19 -23z m958 -4 c-3
-10 -5 -4 -5 12 0 17 2 24 5 18 2 -7 2 -21 0 -30z m1571 9 c2 -12 -2 -22 -8
-22 -6 0 -8 5 -5 10 3 6 2 10 -4 10 -5 0 -12 -6 -14 -12 -4 -10 -6 -10 -6 0
-1 7 7 16 16 19 15 6 15 7 -3 15 -18 8 -18 8 1 5 12 -1 21 -11 23 -25z m54
-14 c-6 -6 -7 0 -4 19 5 21 7 23 10 9 2 -10 0 -22 -6 -28z m406 24 c2 -7 -4
-12 -13 -12 -9 0 -13 -4 -10 -10 3 -5 1 -10 -4 -10 -12 0 -15 33 -4 44 9 9 26
2 31 -12z m-2642 -3 c3 -6 1 -16 -5 -22 -9 -9 -11 -8 -6 5 4 11 0 18 -12 21
-15 4 -16 5 -1 6 9 0 20 -4 24 -10z m2745 -3 c-10 -11 -8 -15 6 -19 14 -4 13
-5 -4 -6 -25 -1 -29 9 -11 27 17 17 23 15 9 -2z m535 3 c3 -6 1 -16 -5 -22 -9
-9 -10 -7 -5 7 6 16 4 18 -14 14 -12 -4 -22 -2 -22 3 0 13 37 11 46 -2z
m-1609 -21 c-3 -8 -6 -5 -6 6 -1 11 2 17 5 13 3 -3 4 -12 1 -19z m1479 13 c-4
-5 0 -12 6 -14 7 -3 2 -6 -11 -6 -20 -1 -21 1 -11 14 14 16 25 21 16 6z
m-3101 -11 c-3 -5 -12 -10 -18 -10 -7 0 -6 4 3 10 19 12 23 12 15 0z m692
-117 c-3 -10 -5 -2 -5 17 0 19 2 27 5 18 2 -10 2 -26 0 -35z m1271 17 c2 -18
0 -21 -6 -11 -7 9 -12 10 -16 2 -11 -17 -26 -13 -26 7 0 13 2 14 9 4 6 -10 10
-10 20 2 10 12 9 15 -6 20 -15 4 -15 5 2 3 13 -2 21 -11 23 -27z m52 15 c0 -9
-7 -18 -15 -21 -8 -4 -15 -11 -15 -16 0 -6 8 -7 18 -3 13 5 14 3 5 -6 -6 -6
-16 -8 -22 -5 -12 8 -15 49 -4 59 12 13 33 7 33 -8z m43 8 c-15 -5 -18 -53 -4
-53 5 0 12 7 14 15 4 11 4 10 3 -2 -2 -24 -30 -23 -34 0 -5 25 5 47 20 46 10
0 10 -2 1 -6z m49 -27 c2 -19 0 -32 -4 -30 -8 5 -12 64 -4 64 2 0 6 -15 8 -34z
m86 4 c2 -18 0 -21 -6 -11 -12 17 -27 -3 -16 -21 5 -9 2 -9 -9 1 -9 7 -17 21
-17 30 0 12 2 13 9 3 6 -10 10 -10 20 2 10 12 9 15 -6 20 -15 4 -15 5 2 3 13
-2 21 -11 23 -27z m167 20 c7 -11 -16 -50 -29 -50 -5 0 -2 8 7 18 21 23 21 29
0 35 -16 4 -16 5 -1 6 9 0 19 -3 23 -9z m63 -20 c2 -18 0 -21 -6 -11 -12 17
-27 -3 -16 -21 5 -9 2 -9 -9 1 -9 7 -17 21 -17 30 0 12 2 13 9 3 6 -10 10 -10
20 2 10 12 9 15 -6 20 -15 4 -15 5 2 3 13 -2 21 -11 23 -27z m112 15 c0 -9 -7
-18 -15 -21 -8 -4 -15 -11 -15 -16 0 -6 8 -7 18 -3 13 5 14 3 5 -6 -6 -6 -16
-8 -22 -5 -12 8 -15 49 -4 59 12 13 33 7 33 -8z m172 -9 c4 -17 1 -23 -9 -19
-7 3 -10 10 -7 15 4 6 0 14 -7 19 -11 7 -11 9 2 9 10 0 19 -10 21 -24z m174
-8 c2 -22 0 -25 -11 -15 -8 8 -10 16 -3 24 6 8 3 13 -9 17 -16 4 -16 5 1 3 12
-1 20 -11 22 -29z m169 21 c11 -16 1 -19 -13 -3 -7 8 -8 14 -3 14 5 0 13 -5
16 -11z m49 4 c-5 -5 -12 -12 -16 -18 -4 -6 -8 -2 -8 8 0 9 7 17 17 17 9 0 12
-3 7 -7z m129 0 c-7 -2 -19 -2 -25 0 -7 3 -2 5 12 5 14 0 19 -2 13 -5z m57
-23 c0 -26 -2 -29 -14 -18 -10 9 -11 15 -2 21 8 5 7 10 -4 17 -13 8 -12 10 3
10 12 0 17 -8 17 -30z m118 1 c5 -30 -13 -50 -30 -33 -9 9 -7 17 8 33 17 21
18 22 1 16 -11 -4 -16 -3 -12 4 11 16 30 5 33 -20z m580 -1 c2 -18 0 -21 -6
-11 -7 9 -12 10 -16 2 -11 -17 -26 -13 -26 7 0 13 2 14 9 4 6 -10 10 -10 20 2
10 12 9 15 -6 20 -15 4 -15 5 2 3 13 -2 21 -11 23 -27z m-2148 16 c0 -3 -4 -8
-10 -11 -5 -3 -10 -1 -10 4 0 6 5 11 10 11 6 0 10 -2 10 -4z m-3443 -28 c-3
-8 -6 -5 -6 6 -1 11 2 17 5 13 3 -3 4 -12 1 -19z m1790 0 c-3 -8 -6 -5 -6 6
-1 11 2 17 5 13 3 -3 4 -12 1 -19z m1950 -10 c-3 -7 -5 -2 -5 12 0 14 2 19 5
13 2 -7 2 -19 0 -25z m460 0 c-3 -7 -5 -2 -5 12 0 14 2 19 5 13 2 -7 2 -19 0
-25z m318 23 c-3 -5 2 -17 11 -25 8 -9 11 -16 6 -16 -15 0 -34 28 -27 40 3 5
8 10 11 10 3 0 3 -4 -1 -9z m952 -23 c-3 -7 -5 -2 -5 12 0 14 2 19 5 13 2 -7
2 -19 0 -25z m-3280 0 c-3 -8 -6 -5 -6 6 -1 11 2 17 5 13 3 -3 4 -12 1 -19z
m2156 2 c3 -11 1 -18 -4 -14 -5 3 -9 12 -9 20 0 20 7 17 13 -6z m375 -5 c-3
-3 -9 2 -12 12 -6 14 -5 15 5 6 7 -7 10 -15 7 -18z m-544 -1 c3 -8 2 -12 -4
-9 -6 3 -10 10 -10 16 0 14 7 11 14 -7z m1270 0 c3 -8 2 -12 -4 -9 -6 3 -10
10 -10 16 0 14 7 11 14 -7z m-2005 -7 c27 17 37 -1 17 -29 -9 -12 -13 -31 -10
-45 4 -13 2 -23 -5 -23 -6 0 -8 7 -4 17 4 11 3 14 -6 9 -6 -4 -11 -13 -10 -19
4 -35 -4 -38 -19 -8 -21 42 -37 49 -52 21 -9 -17 -8 -26 5 -46 16 -25 15 -26
-41 -92 -53 -61 -264 -273 -264 -265 0 2 -27 -17 -61 -43 -72 -55 -214 -145
-258 -164 -25 -10 -30 -17 -26 -34 2 -11 2 -15 -1 -8 -9 20 -24 14 -25 -10 -1
-17 -2 -19 -6 -5 -2 9 -9 17 -14 17 -5 0 -9 -8 -9 -17 0 -15 -2 -16 -10 -3 -6
9 -13 11 -17 5 -5 -5 -12 -11 -18 -12 -30 -6 -144 -61 -138 -66 3 -4 -5 -7
-19 -7 -13 0 -56 -11 -94 -24 -38 -14 -127 -39 -199 -56 -71 -18 -137 -35
-145 -38 -8 -3 -24 -6 -35 -8 -34 -3 -107 -14 -165 -24 -30 -5 -86 -12 -124
-15 -38 -3 -73 -8 -77 -11 -12 -7 -511 -7 -594 1 -38 3 -90 8 -115 11 -25 3
-72 7 -105 9 -33 3 -60 5 -60 6 0 0 -13 3 -28 5 -22 4 -27 2 -21 -8 6 -11 5
-11 -8 0 -13 10 -17 10 -21 0 -4 -8 -6 -7 -6 5 -1 11 -10 17 -28 18 -33 2 -19
0 -243 39 -96 17 -194 33 -217 35 -23 3 -62 9 -86 15 -24 5 -54 8 -66 5 -11
-2 -21 0 -21 5 0 4 -8 7 -18 6 -9 -2 -29 1 -43 6 -21 7 -25 14 -21 38 2 17 6
30 9 30 2 0 86 -14 186 -30 99 -17 195 -32 211 -34 59 -8 141 -27 163 -38 11
-6 25 -8 30 -5 4 3 49 -1 98 -8 332 -50 725 -68 990 -46 224 18 458 58 493 84
6 5 12 6 12 2 0 -4 6 -3 13 2 6 5 24 10 40 11 15 1 82 20 150 42 75 24 131 37
145 33 18 -4 24 -1 29 17 6 23 6 23 14 2 12 -32 49 -25 49 10 0 25 9 32 88 72
169 85 314 189 462 332 72 69 90 81 111 77 29 -5 44 16 34 48 -4 12 10 40 44
84 28 36 55 74 61 85 14 25 63 49 72 35 5 -7 14 -6 27 2z m1272 -66 c-7 -5
-11 -13 -9 -17 3 -5 2 -18 -3 -29 -6 -17 -8 -15 -8 11 -1 32 5 44 23 44 6 0 5
-4 -3 -9z m-1201 -31 c0 -10 -3 -21 -8 -23 -4 -3 -7 8 -7 23 -1 16 3 26 7 24
4 -3 8 -14 8 -24z m25 1 c1 -16 -3 -27 -7 -25 -13 8 -8 54 6 54 1 0 1 -13 1
-29z m35 -1 c0 -10 -3 -21 -8 -23 -4 -3 -7 8 -7 23 -1 16 3 26 7 24 4 -3 8
-14 8 -24z m36 -2 c-9 -5 -13 -14 -10 -20 4 -7 2 -8 -4 -4 -7 4 -12 17 -12 29
0 18 2 19 10 7 7 -12 10 -11 16 5 5 13 9 15 12 6 3 -8 -3 -18 -12 -23z m50 23
c-3 -5 1 -11 9 -15 8 -3 14 -13 14 -23 -1 -17 -2 -17 -6 0 -2 9 -8 17 -13 17
-5 0 -11 -8 -13 -17 -3 -12 -5 -9 -6 8 0 14 2 29 6 32 9 10 15 9 9 -2z m144
-21 c0 -10 -3 -21 -8 -23 -4 -3 -7 8 -7 23 -1 16 3 26 7 24 4 -3 8 -14 8 -24z
m146 21 c-3 -5 1 -11 9 -15 8 -3 14 -13 14 -23 -1 -17 -2 -17 -6 0 -2 9 -8 17
-13 17 -5 0 -11 -8 -13 -17 -3 -12 -5 -9 -6 8 0 14 2 29 6 32 9 10 15 9 9 -2z
m84 -17 c0 -8 -8 -14 -17 -14 -14 0 -15 2 -4 9 8 5 10 14 6 21 -5 9 -4 11 3 6
7 -4 12 -14 12 -22z m85 -3 c0 -16 -3 -27 -7 -24 -13 7 -7 53 6 53 1 0 1 -13
1 -29z m265 -4 c0 -5 -5 -5 -10 -2 -6 4 -17 1 -25 -5 -12 -10 -15 -8 -15 11 0
19 2 21 10 9 8 -12 10 -12 16 4 5 14 9 15 15 4 5 -7 9 -17 9 -21z m86 24 c-3
-5 1 -11 9 -15 8 -3 14 -13 14 -23 -1 -17 -2 -17 -6 0 -2 9 -8 17 -13 17 -5 0
-11 -8 -13 -17 -3 -12 -5 -9 -6 8 0 14 2 29 6 32 9 10 15 9 9 -2z m169 -20 c0
-16 -3 -27 -7 -24 -13 7 -7 53 6 53 1 0 1 -13 1 -29z m351 20 c-3 -5 1 -11 9
-15 8 -3 14 -13 14 -23 -1 -17 -2 -17 -6 0 -3 11 -11 16 -19 13 -14 -5 -20 15
-7 27 9 10 15 9 9 -2z m-4989 -23 c-3 -8 -6 -5 -6 6 -1 11 2 17 5 13 3 -3 4
-12 1 -19z m3383 18 c0 -3 -4 -8 -10 -11 -5 -3 -10 -1 -10 4 0 6 5 11 10 11 6
0 10 -2 10 -4z m343 -3 c-7 -2 -13 -14 -14 -26 0 -12 -3 -16 -6 -9 -7 18 4 42
19 41 10 0 10 -2 1 -6z m473 -11 c1 -7 0 -8 -3 -2 -9 18 -23 11 -24 -12 0 -13
-3 -17 -6 -10 -7 18 5 44 19 40 6 -2 13 -10 14 -16z m352 0 c2 -7 -1 -12 -8
-12 -6 0 -9 4 -6 9 4 5 1 12 -4 14 -6 3 -5 4 2 3 6 -1 14 -8 16 -14z m326 10
c-6 -4 -10 -15 -8 -26 2 -13 -1 -15 -8 -8 -13 13 -3 42 14 42 9 0 10 -3 2 -8z
m186 4 c0 -2 -7 -7 -16 -10 -8 -3 -12 -2 -9 4 6 10 25 14 25 6z m408 -14 c2
-7 -3 -12 -11 -12 -9 0 -18 -6 -20 -12 -3 -7 -6 -4 -6 8 -1 34 27 46 37 16z
m322 -2 c0 -21 -15 -27 -25 -10 -7 12 2 30 16 30 5 0 9 -9 9 -20z m-2315 0 c3
-5 1 -10 -4 -10 -6 0 -11 5 -11 10 0 6 2 10 4 10 3 0 8 -4 11 -10z m290 0 c3
-5 1 -10 -4 -10 -6 0 -11 5 -11 10 0 6 2 10 4 10 3 0 8 -4 11 -10z m1071 -1
c3 -6 1 -16 -5 -22 -9 -9 -11 -8 -6 5 4 11 0 18 -12 21 -15 4 -16 5 -1 6 9 0
20 -4 24 -10z m750 0 c3 -6 1 -16 -5 -22 -9 -9 -11 -8 -6 6 5 12 2 17 -10 17
-11 0 -15 -5 -11 -16 3 -8 2 -12 -4 -9 -6 3 -10 13 -10 21 0 16 36 19 46 3z
m-1069 -14 c0 -8 -4 -12 -9 -9 -4 3 -8 9 -8 15 0 5 4 9 8 9 5 0 9 -7 9 -15z
m653 5 c0 -5 -5 -10 -11 -10 -5 0 -7 5 -4 10 3 6 8 10 11 10 2 0 4 -4 4 -10z
m804 -5 c-4 -8 -11 -15 -16 -15 -6 0 -5 6 2 15 7 8 14 15 16 15 2 0 1 -7 -2
-15z m-2588 -86 c3 -6 1 -16 -5 -22 -9 -9 -11 -8 -6 6 4 10 2 17 -4 17 -6 0
-11 -12 -11 -26 0 -21 4 -25 18 -19 13 5 14 3 5 -6 -16 -16 -33 -3 -33 25 0
34 21 49 36 25z m60 -13 c2 -14 1 -14 -3 0 -3 9 -11 13 -19 10 -9 -3 -12 -1
-9 5 10 15 30 5 31 -15z m59 -12 c0 -21 -5 -29 -20 -31 -16 -1 -16 -1 -2 3 18
6 24 49 7 57 -6 3 -5 4 2 3 7 -2 13 -16 13 -32z m109 6 c-6 -6 -10 -3 -10 10
0 13 4 16 10 10 7 -7 7 -13 0 -20z m123 -22 c-2 -13 -4 -5 -4 17 -1 22 1 32 4
23 2 -10 2 -28 0 -40z m280 46 c-3 -3 -12 -4 -19 -1 -8 3 -5 6 6 6 11 1 17 -2
13 -5z m118 -5 c11 -16 1 -19 -13 -3 -7 8 -8 14 -3 14 5 0 13 -5 16 -11z m63
-10 c3 -12 2 -12 -6 0 -6 8 -15 10 -22 6 -9 -5 -11 -4 -6 4 10 15 28 10 34
-10z m286 12 c4 -5 -3 -7 -14 -4 -23 6 -26 13 -6 13 8 0 17 -4 20 -9z m171
-26 c0 -17 -6 -30 -15 -32 -13 -4 -13 -3 0 7 12 9 13 12 1 17 -11 5 -11 7 0
14 12 8 11 11 -1 20 -13 9 -13 10 0 6 9 -2 15 -15 15 -32z m170 25 c3 -6 -1
-7 -9 -4 -18 7 -21 14 -7 14 6 0 13 -4 16 -10z m62 4 c-3 -3 -12 -4 -19 -1 -8
3 -5 6 6 6 11 1 17 -2 13 -5z m123 -3 c0 -5 -9 -7 -20 -4 -11 3 -20 7 -20 9 0
2 9 4 20 4 11 0 20 -4 20 -9z m48 -14 c2 -9 -2 -17 -8 -17 -6 0 -8 5 -4 11 3
6 0 16 -7 21 -12 8 -11 9 1 5 8 -2 16 -11 18 -20z m348 12 c3 -6 1 -16 -5 -22
-9 -9 -11 -8 -6 6 4 10 2 17 -4 17 -6 0 -11 -12 -11 -26 0 -21 4 -25 18 -19
13 5 14 3 5 -6 -16 -16 -33 -3 -33 25 0 34 21 49 36 25z m60 -13 c2 -14 1 -14
-3 0 -3 9 -11 13 -19 10 -9 -3 -12 -1 -9 5 10 15 30 5 31 -15z m168 -6 c-6 -6
-10 -3 -10 10 0 13 4 16 10 10 7 -7 7 -13 0 -20z m292 19 c3 -6 1 -16 -5 -22
-9 -9 -11 -8 -6 6 4 10 2 17 -4 17 -6 0 -11 -12 -11 -26 0 -21 4 -25 18 -19
13 5 14 3 5 -6 -16 -16 -33 -3 -33 25 0 34 21 49 36 25z m62 -18 c5 -30 -13
-50 -30 -33 -9 9 -9 15 1 25 10 10 11 9 6 -5 -4 -11 -2 -18 4 -18 6 0 11 12
11 26 0 20 -4 25 -16 20 -9 -3 -12 -2 -9 5 11 16 30 5 33 -20z m-3691 -18 c-3
-10 -5 -4 -5 12 0 17 2 24 5 18 2 -7 2 -21 0 -30z m1311 -8 c13 5 14 3 5 -6
-17 -17 -33 -2 -32 29 l2 27 4 -28 c3 -22 8 -27 21 -22z m52 -5 c5 0 11 7 13
15 4 11 4 10 3 -2 -2 -28 -31 -22 -32 7 -1 22 0 22 3 3 2 -13 8 -23 13 -23z
m277 28 c-3 -8 -6 -5 -6 6 -1 11 2 17 5 13 3 -3 4 -12 1 -19z m1691 -23 c13 5
14 3 5 -6 -17 -17 -33 -2 -32 29 l2 27 4 -28 c3 -22 8 -27 21 -22z m-5631 13
c-3 -8 -6 -5 -6 6 -1 11 2 17 5 13 3 -3 4 -12 1 -19z m520 0 c-3 -8 -6 -5 -6
6 -1 11 2 17 5 13 3 -3 4 -12 1 -19z m2965 8 c7 4 8 2 4 -4 -11 -18 -26 -14
-25 6 0 10 3 12 6 4 2 -6 10 -9 15 -6z m60 0 c7 4 8 2 4 -4 -11 -18 -26 -14
-25 6 0 10 3 12 6 4 2 -6 10 -9 15 -6z m25 -8 c-3 -8 -6 -5 -6 6 -1 11 2 17 5
13 3 -3 4 -12 1 -19z m207 11 c12 19 28 12 24 -11 -2 -14 -11 -24 -23 -25 -16
-1 -16 -1 -2 3 9 3 17 13 17 22 0 12 -3 13 -12 4 -17 -17 -28 -15 -28 6 0 13
2 14 9 3 6 -9 11 -10 15 -2z m520 0 c11 17 26 13 26 -6 0 -14 -2 -15 -9 -4 -6
9 -11 10 -15 2 -11 -17 -26 -13 -26 7 0 13 2 14 9 3 6 -9 11 -10 15 -2z m76
-14 c0 -15 -6 -25 -14 -25 -20 0 -29 17 -15 26 8 4 9 3 5 -4 -4 -7 -2 -12 3
-12 6 0 11 9 11 20 0 11 2 20 5 20 3 0 5 -11 5 -25z m350 10 c0 -8 -8 -15 -17
-16 -16 0 -15 -2 2 -10 20 -9 20 -9 0 -6 -11 1 -21 10 -23 20 -2 12 1 15 12
11 9 -3 16 -1 16 5 0 6 2 11 5 11 3 0 5 -7 5 -15z m842 1 c7 4 8 2 4 -4 -11
-18 -26 -14 -25 6 0 10 3 12 6 4 2 -6 10 -9 15 -6z m25 -8 c-3 -8 -6 -5 -6 6
-1 11 2 17 5 13 3 -3 4 -12 1 -19z m-4150 -10 c-3 -8 -6 -5 -6 6 -1 11 2 17 5
13 3 -3 4 -12 1 -19z m750 0 c-3 -8 -6 -5 -6 6 -1 11 2 17 5 13 3 -3 4 -12 1
-19z m1236 5 c-5 -13 -3 -15 13 -9 15 6 17 5 7 -5 -15 -15 -40 2 -29 20 11 17
16 13 9 -6z m538 -16 c-8 -8 -14 -8 -23 2 -11 10 -10 11 5 6 12 -5 17 -2 18
11 0 12 2 14 6 6 3 -8 0 -19 -6 -25z m524 12 c0 -7 -8 -14 -18 -15 -12 -1 -13
-1 -2 3 17 5 20 19 5 26 -6 3 -5 4 2 3 7 -2 13 -9 13 -17z m336 7 c-10 -11 -8
-15 6 -19 14 -4 13 -5 -4 -6 -25 -1 -29 9 -11 27 17 17 23 15 9 -2z m67 -3
c-2 -9 -10 -18 -18 -20 -12 -4 -13 -3 -1 5 7 5 10 15 7 21 -4 6 -2 11 4 11 6
0 10 -8 8 -17z m555 0 c-5 -13 -3 -15 13 -9 15 6 17 5 7 -5 -15 -15 -40 2 -29
20 11 17 16 13 9 -6z m-2223 -3 c0 -5 -5 -10 -11 -10 -5 0 -7 5 -4 10 3 6 8
10 11 10 2 0 4 -4 4 -10z m906 1 c-4 -5 0 -12 6 -14 7 -3 2 -6 -11 -6 -20 -1
-21 1 -11 14 14 16 25 21 16 6z m65 -6 c11 6 11 5 2 -5 -12 -14 -33 -6 -33 13
0 8 3 7 9 -2 5 -8 14 -10 22 -6z m1909 11 c0 -3 -4 -8 -10 -11 -5 -3 -10 -1
-10 4 0 6 5 11 10 11 6 0 10 -2 10 -4z m-2385 -16 c3 -5 1 -10 -4 -10 -6 0
-11 5 -11 10 0 6 2 10 4 10 3 0 8 -4 11 -10z m820 0 c-3 -5 -12 -10 -18 -10
-7 0 -6 4 3 10 19 12 23 12 15 0z m-978 -6 c-3 -3 -12 -4 -19 -1 -8 3 -5 6 6
6 11 1 17 -2 13 -5z m750 0 c-3 -3 -12 -4 -19 -1 -8 3 -5 6 6 6 11 1 17 -2 13
-5z m750 0 c-3 -3 -12 -4 -19 -1 -8 3 -5 6 6 6 11 1 17 -2 13 -5z m520 0 c-3
-3 -12 -4 -19 -1 -8 3 -5 6 6 6 11 1 17 -2 13 -5z m-2213 -90 c-3 -35 -14 -44
-14 -12 0 21 7 38 15 38 1 0 1 -12 -1 -26z m23 4 c-3 -8 -6 -5 -6 6 -1 11 2
17 5 13 3 -3 4 -12 1 -19z m44 -17 c-15 -15 -21 -17 -21 -7 0 8 7 17 16 20 9
3 12 11 8 18 -5 10 -4 10 6 2 9 -10 8 -16 -9 -33z m79 9 c0 -10 -4 -22 -10
-25 -6 -3 -7 1 -4 10 5 11 2 14 -10 9 -9 -3 -13 -11 -9 -17 3 -6 1 -7 -5 -3
-18 11 -14 34 6 32 9 0 16 5 14 12 -1 8 2 11 8 7 5 -3 10 -15 10 -25z m60 0
c0 -10 -3 -21 -8 -23 -4 -3 -7 8 -7 23 -1 16 3 26 7 24 4 -3 8 -14 8 -24z m24
4 c-3 -35 -14 -44 -14 -12 0 21 7 38 15 38 1 0 1 -12 -1 -26z m23 4 c-3 -8 -6
-5 -6 6 -1 11 2 17 5 13 3 -3 4 -12 1 -19z m46 15 c-7 -2 -14 -17 -14 -31 -1
-18 -3 -21 -6 -9 -6 24 3 47 19 46 10 0 10 -2 1 -6z m136 -26 c0 -12 -3 -16
-6 -9 -2 6 -10 9 -16 5 -8 -5 -8 -2 0 9 7 8 9 19 5 23 -4 5 -1 5 6 1 6 -4 12
-17 11 -29z m152 -6 c-15 -15 -21 -17 -21 -7 0 8 7 17 16 20 9 3 12 11 8 18
-5 10 -4 10 6 2 9 -10 8 -16 -9 -33z m163 13 c-3 -35 -14 -44 -14 -12 0 21 7
38 15 38 1 0 1 -12 -1 -26z m23 4 c-3 -8 -6 -5 -6 6 -1 11 2 17 5 13 3 -3 4
-12 1 -19z m173 2 c0 -30 -3 -35 -20 -32 -23 6 -25 11 -10 25 10 9 11 9 6 0
-4 -7 -2 -13 5 -13 6 0 9 8 6 20 -3 11 -1 20 4 20 5 0 9 -9 9 -20z m180 13
c-1 -13 -29 -59 -29 -48 -1 6 4 17 9 25 7 11 5 17 -8 22 -14 5 -13 7 6 7 12 1
22 -2 22 -6z m170 -2 c0 -5 -9 -7 -20 -4 -11 3 -20 7 -20 9 0 2 9 4 20 4 11 0
20 -4 20 -9z m350 2 c-1 -13 -29 -59 -29 -48 -1 6 4 17 9 25 7 11 5 17 -8 22
-14 5 -13 7 6 7 12 1 22 -2 22 -6z m170 -5 c-1 -17 -28 -53 -35 -46 -3 3 1 11
10 18 20 16 19 27 -2 33 -14 4 -12 5 5 6 12 0 22 -5 22 -11z m41 -27 c-15 -15
-21 -17 -21 -7 0 8 7 17 16 20 9 3 12 11 8 18 -5 10 -4 10 6 2 9 -10 8 -16 -9
-33z m172 32 c-7 -2 -14 -17 -14 -31 -1 -18 -3 -21 -6 -9 -6 24 3 47 19 46 10
0 10 -2 1 -6z m77 -23 c0 -10 -5 -22 -12 -26 -7 -4 -8 -3 -4 4 4 7 1 12 -8 12
-9 0 -16 4 -16 10 0 5 8 6 17 3 13 -5 15 -2 10 11 -4 10 -3 15 3 11 6 -3 10
-15 10 -25z m349 -3 c0 -12 -3 -16 -6 -9 -2 6 -10 9 -16 5 -8 -5 -8 -2 0 9 7
8 9 19 5 23 -4 5 -1 5 6 1 6 -4 12 -17 11 -29z m111 24 c0 -5 -9 -7 -20 -4
-11 3 -20 7 -20 9 0 2 9 4 20 4 11 0 20 -4 20 -9z m41 -30 c-15 -15 -21 -17
-21 -7 0 8 7 17 16 20 9 3 12 11 8 18 -5 10 -4 10 6 2 9 -10 8 -16 -9 -33z
m536 -8 c-3 -10 -5 -2 -5 17 0 19 2 27 5 18 2 -10 2 -26 0 -35z m-2310 6 c1
-19 1 -20 -4 -4 -3 11 -10 24 -17 28 -7 6 -6 7 4 4 8 -2 16 -14 17 -28z m1441
6 c-3 -3 -9 2 -12 12 -6 14 -5 15 5 6 7 -7 10 -15 7 -18z m-2102 -10 c1 -8 -2
-13 -7 -9 -5 3 -9 12 -9 21 0 19 13 9 16 -12z m171 -7 c-3 -7 -5 -2 -5 12 0
14 2 19 5 13 2 -7 2 -19 0 -25z m56 12 c3 -11 1 -18 -4 -14 -5 3 -9 12 -9 20
0 20 7 17 13 -6z m763 -8 c-17 -16 -18 -16 -5 5 7 12 15 20 18 17 3 -2 -3 -12
-13 -22z m357 21 c-7 -2 -19 -2 -25 0 -7 3 -2 5 12 5 14 0 19 -2 13 -5z m163
-21 c-17 -16 -18 -16 -5 5 7 12 15 20 18 17 3 -2 -3 -12 -13 -22z m561 -4 c-3
-7 -5 -2 -5 12 0 14 2 19 5 13 2 -7 2 -19 0 -25z m176 12 c3 -11 1 -18 -4 -14
-5 3 -9 12 -9 20 0 20 7 17 13 -6z m634 -2 c-3 -8 -6 -5 -6 6 -1 11 2 17 5 13
3 -3 4 -12 1 -19z m-2740 -10 c-3 -8 -6 -5 -6 6 -1 11 2 17 5 13 3 -3 4 -12 1
-19z m353 7 c0 -8 -4 -15 -10 -15 -5 0 -7 7 -4 15 4 8 8 15 10 15 2 0 4 -7 4
-15z m680 11 c0 -2 -8 -10 -17 -17 -16 -13 -17 -12 -4 4 13 16 21 21 21 13z
m844 -12 c3 -8 2 -12 -4 -9 -6 3 -10 10 -10 16 0 14 7 11 14 -7z m196 12 c0
-2 -8 -10 -17 -17 -16 -13 -17 -12 -4 4 13 16 21 21 21 13z m-2029 -123 c-4
-28 -6 -32 -9 -15 -3 22 3 52 11 52 1 0 1 -17 -2 -37z m-560 4 c-10 -9 -11 -8
-5 6 3 10 9 15 12 12 3 -3 0 -11 -7 -18z m66 1 c-3 -8 -6 -5 -6 6 -1 11 2 17
5 13 3 -3 4 -12 1 -19z m150 -6 c-10 -10 -14 -22 -10 -27 5 -4 2 -5 -4 -1 -7
4 -13 17 -13 29 0 18 2 19 10 7 8 -12 10 -12 16 3 3 10 9 15 12 12 3 -2 -2
-13 -11 -23z m73 13 c0 -8 -4 -15 -10 -15 -5 0 -7 7 -4 15 4 8 8 15 10 15 2 0
4 -7 4 -15z m161 -8 c-10 -9 -11 -8 -5 6 3 10 9 15 12 12 3 -3 0 -11 -7 -18z
m504 13 c-3 -5 2 -11 12 -11 17 -1 17 -2 0 -6 -11 -3 -16 -11 -13 -19 3 -9 1
-12 -4 -9 -11 7 -13 38 -3 48 10 10 15 8 8 -3z m222 -12 c-3 -8 -6 -5 -6 6 -1
11 2 17 5 13 3 -3 4 -12 1 -19z m195 -8 c3 -17 0 -30 -6 -30 -6 0 -11 14 -11
30 0 17 3 30 6 30 4 0 9 -13 11 -30z m103 20 c-3 -5 2 -11 12 -11 17 -1 17 -2
0 -6 -11 -3 -16 -11 -13 -19 3 -9 1 -12 -4 -9 -11 7 -13 38 -3 48 10 10 15 8
8 -3z m750 0 c-3 -5 2 -11 12 -11 17 -1 17 -2 0 -6 -11 -3 -16 -11 -13 -19 3
-9 1 -12 -4 -9 -11 7 -13 38 -3 48 10 10 15 8 8 -3z m76 -43 c-10 -10 -11 -8
-6 6 5 12 2 17 -9 17 -9 0 -16 7 -16 15 0 13 4 12 22 -5 18 -16 19 -23 9 -33z
m456 25 c-10 -10 -14 -22 -10 -27 5 -4 2 -5 -4 -1 -7 4 -13 17 -13 29 0 18 2
19 10 7 8 -12 10 -12 16 3 3 10 9 15 12 12 3 -2 -2 -13 -11 -23z m-5920 -4
c-3 -8 -6 -5 -6 6 -1 11 2 17 5 13 3 -3 4 -12 1 -19z m3505 -20 c-6 -6 -7 0
-4 19 5 21 7 23 10 9 2 -10 0 -22 -6 -28z m40 28 c7 4 8 2 4 -4 -11 -18 -26
-14 -25 6 0 10 3 12 6 4 2 -6 10 -9 15 -6z m25 -8 c-3 -8 -6 -5 -6 6 -1 11 2
17 5 13 3 -3 4 -12 1 -19z m25 -3 c3 -13 1 -22 -3 -19 -9 5 -13 44 -5 44 2 0
6 -11 8 -25z m88 -8 c0 -8 -4 -6 -10 3 -9 13 -11 13 -20 0 -8 -12 -10 -11 -10
8 0 20 3 21 20 12 11 -6 20 -16 20 -23z m112 -9 c-6 -6 -7 0 -4 19 5 21 7 23
10 9 2 -10 0 -22 -6 -28z m903 18 c0 -15 -4 -21 -9 -16 -5 5 -6 16 -3 24 9 22
12 20 12 -8z m1117 -18 c-6 -6 -7 0 -4 19 5 21 7 23 10 9 2 -10 0 -22 -6 -28z
m178 11 c0 -10 -5 -19 -11 -19 -5 0 -7 5 -4 10 3 6 2 10 -4 10 -5 0 -12 -6
-14 -12 -4 -10 -6 -10 -6 0 -1 7 6 15 14 18 8 4 12 11 8 17 -3 6 -1 7 5 3 7
-4 12 -16 12 -27z m-2225 11 c3 -5 1 -10 -4 -10 -6 0 -11 5 -11 10 0 6 2 10 4
10 3 0 8 -4 11 -10z m551 -1 c3 -6 1 -16 -5 -22 -9 -9 -11 -8 -6 5 4 11 0 18
-12 21 -15 4 -16 5 -1 6 9 0 20 -4 24 -10z m171 -9 c3 -10 2 -11 -4 -4 -4 6
-15 14 -23 17 -11 5 -9 6 4 4 11 -1 21 -9 23 -17z m520 0 c3 -10 2 -11 -4 -4
-4 6 -15 14 -23 17 -11 5 -9 6 4 4 11 -1 21 -9 23 -17z m59 9 c3 -6 1 -16 -5
-22 -9 -9 -11 -8 -6 5 4 11 0 18 -12 21 -15 4 -16 5 -1 6 9 0 20 -4 24 -10z
m520 0 c3 -6 1 -16 -5 -22 -9 -9 -10 -7 -5 7 6 16 4 18 -14 14 -12 -4 -22 -2
-22 3 0 13 37 11 46 -2z m50 0 c3 -6 1 -16 -6 -22 -10 -9 -11 -9 -5 2 4 8 2
17 -6 22 -9 6 -10 9 -2 9 6 0 15 -5 19 -11z m149 1 c3 -5 1 -10 -4 -10 -6 0
-11 5 -11 10 0 6 2 10 4 10 3 0 8 -4 11 -10z m365 -5 c0 -8 -4 -15 -10 -15 -5
0 -10 7 -10 15 0 8 5 15 10 15 6 0 10 -7 10 -15z m-3006 -11 c3 -8 2 -12 -4
-9 -6 3 -10 10 -10 16 0 14 7 11 14 -7z m1221 -4 c-3 -5 -12 -10 -18 -10 -7 0
-6 4 3 10 19 12 23 12 15 0z m-342 -7 c-7 -2 -19 -2 -25 0 -7 3 -2 5 12 5 14
0 19 -2 13 -5z m1210 0 c-7 -2 -19 -2 -25 0 -7 3 -2 5 12 5 14 0 19 -2 13 -5z
m520 0 c-7 -2 -19 -2 -25 0 -7 3 -2 5 12 5 14 0 19 -2 13 -5z m-2770 -70 c-7
-2 -13 -12 -13 -20 0 -9 -3 -14 -6 -10 -10 10 4 37 18 36 10 0 10 -2 1 -6z
m245 -29 c-3 -14 -5 -12 -10 9 -3 19 -2 25 4 19 6 -6 8 -18 6 -28z m145 29
c-7 -2 -14 -17 -14 -31 -1 -18 -3 -21 -6 -9 -6 24 3 47 19 46 10 0 10 -2 1 -6z
m75 -14 c3 -12 2 -12 -6 0 -6 8 -15 10 -22 6 -9 -5 -11 -4 -6 4 10 15 28 10
34 -10z m61 -12 c0 -12 -3 -16 -6 -9 -4 9 -8 10 -18 2 -10 -8 -15 -8 -21 2 -4
7 -4 10 1 6 11 -11 36 12 28 25 -3 6 -1 7 5 3 7 -4 12 -17 11 -29z m82 1 c-3
-21 -6 -26 -9 -15 -3 17 3 47 11 47 2 0 1 -15 -2 -32z m89 23 c0 -5 -9 -7 -20
-4 -11 3 -20 7 -20 9 0 2 9 4 20 4 11 0 20 -4 20 -9z m58 -12 c3 -12 2 -12 -6
0 -6 8 -15 10 -22 6 -9 -5 -11 -4 -6 4 10 15 28 10 34 -10z m61 -12 c0 -12 -3
-16 -6 -9 -2 6 -10 9 -16 5 -8 -5 -8 -2 0 9 7 8 9 19 5 23 -4 5 -1 5 6 1 6 -4
12 -17 11 -29z m169 12 c3 -12 2 -12 -6 0 -6 8 -15 10 -22 6 -9 -5 -11 -4 -6
4 10 15 28 10 34 -10z m155 14 c-7 -2 -14 -17 -14 -31 -1 -18 -3 -21 -6 -9 -6
24 3 47 19 46 10 0 10 -2 1 -6z m75 -14 c3 -12 2 -12 -6 0 -6 8 -15 10 -22 6
-9 -5 -11 -4 -6 4 10 15 28 10 34 -10z m155 14 c-7 -2 -14 -17 -14 -31 -1 -18
-3 -21 -6 -9 -6 24 3 47 19 46 10 0 10 -2 1 -6z m135 -14 c3 -12 2 -12 -6 0
-6 8 -15 10 -22 6 -9 -5 -11 -4 -6 4 10 15 28 10 34 -10z m168 3 c1 -7 0 -8
-3 -2 -9 19 -23 10 -24 -17 -1 -18 -3 -22 -6 -10 -3 10 -2 25 1 33 7 18 28 14
32 -4z m62 -3 c3 -12 2 -12 -6 0 -6 8 -15 10 -22 6 -9 -5 -11 -4 -6 4 10 15
28 10 34 -10z m155 14 c-7 -2 -14 -17 -14 -31 -1 -18 -3 -21 -6 -9 -6 24 3 47
19 46 10 0 10 -2 1 -6z m135 -14 c3 -12 2 -12 -6 0 -6 8 -15 10 -22 6 -9 -5
-11 -4 -6 4 10 15 28 10 34 -10z m170 0 c3 -11 2 -11 -7 1 -10 13 -12 13 -21
0 -5 -8 -10 -10 -10 -4 0 27 31 30 38 3z m60 0 c3 -12 2 -12 -6 0 -6 8 -15 10
-22 6 -9 -5 -11 -4 -6 4 10 15 28 10 34 -10z m155 14 c-7 -2 -14 -17 -14 -31
-1 -18 -3 -21 -6 -9 -6 24 3 47 19 46 10 0 10 -2 1 -6z m357 -3 c0 -5 -5 -10
-11 -10 -5 0 -7 5 -4 10 3 6 8 10 11 10 2 0 4 -4 4 -10z m180 1 c0 -5 -9 -7
-20 -4 -11 3 -20 7 -20 9 0 2 9 4 20 4 11 0 20 -4 20 -9z m56 -2 c3 -6 -4 -21
-17 -33 -22 -20 -22 -20 -6 0 21 26 21 31 0 37 -16 4 -16 5 -1 6 9 0 20 -4 24
-10z m104 -8 c0 -6 -4 -13 -10 -16 -5 -3 -10 1 -10 9 0 9 5 16 10 16 6 0 10
-4 10 -9z m-2953 -33 c-3 -7 -5 -2 -5 12 0 14 2 19 5 13 2 -7 2 -19 0 -25z
m390 10 c-3 -8 -6 -5 -6 6 -1 11 2 17 5 13 3 -3 4 -12 1 -19z m42 5 c0 -11 -3
-13 -6 -5 -2 6 -10 9 -15 6 -7 -4 -8 -2 -4 4 11 18 26 14 25 -5z m188 -5 c-3
-8 -6 -5 -6 6 -1 11 2 17 5 13 3 -3 4 -12 1 -19z m520 0 c-3 -8 -6 -5 -6 6 -1
11 2 17 5 13 3 -3 4 -12 1 -19z m42 5 c0 -11 -3 -13 -6 -5 -2 6 -10 9 -15 6
-7 -4 -8 -2 -4 4 11 18 26 14 25 -5z m188 -5 c-3 -8 -6 -5 -6 6 -1 11 2 17 5
13 3 -3 4 -12 1 -19z m42 5 c0 -11 -3 -13 -6 -5 -2 6 -10 9 -15 6 -7 -4 -8 -2
-4 4 11 18 26 14 25 -5z m248 -5 c-3 -8 -6 -5 -6 6 -1 11 2 17 5 13 3 -3 4
-12 1 -19z m42 5 c0 -11 -3 -13 -6 -5 -2 6 -10 9 -15 6 -7 -4 -8 -2 -4 4 11
18 26 14 25 -5z m188 -5 c-3 -8 -6 -5 -6 6 -1 11 2 17 5 13 3 -3 4 -12 1 -19z
m42 5 c0 -11 -3 -13 -6 -5 -2 6 -10 9 -15 6 -7 -4 -8 -2 -4 4 11 18 26 14 25
-5z m398 -15 c-3 -7 -5 -2 -5 12 0 14 2 19 5 13 2 -7 2 -19 0 -25z m80 10 c-3
-8 -6 -5 -6 6 -1 11 2 17 5 13 3 -3 4 -12 1 -19z m42 5 c0 -11 -3 -13 -6 -5
-2 6 -10 9 -15 6 -7 -4 -8 -2 -4 4 11 18 26 14 25 -5z m48 -15 c-3 -7 -5 -2
-5 12 0 14 2 19 5 13 2 -7 2 -19 0 -25z m-2640 0 c-3 -8 -6 -5 -6 6 -1 11 2
17 5 13 3 -3 4 -12 1 -19z m429 2 c0 -12 -4 -16 -9 -11 -5 5 -6 14 -3 20 10
15 12 14 12 -9z m287 5 c-3 -9 -8 -14 -10 -11 -3 3 -2 9 2 15 9 16 15 13 8 -4z
m233 -5 c0 -12 -4 -16 -9 -11 -5 5 -6 14 -3 20 10 15 12 14 12 -9z m227 5 c-3
-9 -8 -14 -10 -11 -3 3 -2 9 2 15 9 16 15 13 8 -4z m293 -5 c0 -12 -4 -16 -9
-11 -5 5 -6 14 -3 20 10 15 12 14 12 -9z m227 5 c-3 -9 -8 -14 -10 -11 -3 3
-2 9 2 15 9 16 15 13 8 -4z m293 -5 c0 -12 -4 -16 -9 -11 -5 5 -6 14 -3 20 10
15 12 14 12 -9z m227 5 c-3 -9 -8 -14 -10 -11 -3 3 -2 9 2 15 9 16 15 13 8 -4z
m231 -11 c3 -8 2 -12 -4 -9 -6 3 -10 10 -10 16 0 14 7 11 14 -7z m316 12 c0
-3 -4 -8 -10 -11 -5 -3 -10 -1 -10 4 0 6 5 11 10 11 6 0 10 -2 10 -4z m53 -83
c-7 -2 -13 -19 -14 -36 0 -27 -2 -29 -8 -12 -10 23 4 55 22 54 9 0 9 -2 0 -6z
m-2659 -38 c-26 -18 -30 -11 -7 12 10 10 20 15 22 10 1 -4 -5 -14 -15 -22z
m277 -4 c-12 -12 -21 -16 -21 -11 0 13 34 48 38 39 2 -4 -6 -17 -17 -28z m79
9 c0 -10 -3 -21 -8 -23 -4 -3 -7 8 -7 23 -1 16 3 26 7 24 4 -3 8 -14 8 -24z
m60 0 c0 -10 -3 -21 -7 -23 -5 -3 -8 8 -8 23 0 15 3 26 8 23 4 -2 7 -13 7 -23z
m96 -7 c-8 -15 -15 -25 -16 -21 0 12 23 58 27 54 3 -2 -2 -17 -11 -33z m134 7
c0 -10 -3 -21 -8 -23 -4 -3 -7 8 -7 23 -1 16 3 26 7 24 4 -3 8 -14 8 -24z
m143 10 c-3 -12 -8 -19 -11 -16 -5 6 5 36 12 36 2 0 2 -9 -1 -20z m169 -7 c-3
-16 -7 -22 -10 -15 -4 13 4 42 11 42 2 0 2 -12 -1 -27z m438 -3 c0 -10 -3 -21
-8 -23 -4 -3 -7 8 -7 23 -1 16 3 26 7 24 4 -3 8 -14 8 -24z m82 3 c-3 -16 -7
-22 -10 -15 -4 13 4 42 11 42 2 0 2 -12 -1 -27z m62 12 c3 -8 1 -15 -4 -15 -6
0 -10 7 -10 15 0 8 2 15 4 15 2 0 6 -7 10 -15z m186 -20 c-7 -14 -18 -25 -23
-25 -6 0 -3 8 6 18 10 10 17 25 17 32 0 7 3 10 7 7 3 -4 0 -18 -7 -32z m180
15 c0 -30 -3 -35 -20 -32 -23 6 -25 11 -10 25 10 9 11 9 6 0 -4 -7 -2 -13 5
-13 6 0 9 8 6 20 -3 11 -1 20 4 20 5 0 9 -9 9 -20z m154 5 c3 -8 1 -15 -4 -15
-6 0 -10 7 -10 15 0 8 2 15 4 15 2 0 6 -7 10 -15z m416 -20 c-7 -14 -18 -25
-23 -25 -6 0 -3 8 6 18 10 10 17 25 17 32 0 7 3 10 7 7 3 -4 0 -18 -7 -32z
m104 20 c3 -8 1 -15 -4 -15 -6 0 -10 7 -10 15 0 8 2 15 4 15 2 0 6 -7 10 -15z
m168 -12 c-3 -16 -7 -22 -10 -15 -4 13 4 42 11 42 2 0 2 -12 -1 -27z m61 12
c-3 -9 -8 -14 -10 -11 -3 3 -2 9 2 15 9 16 15 13 8 -4z m-2735 -23 c2 -12 -1
-22 -7 -22 -6 0 -8 7 -4 16 3 9 0 20 -8 26 -12 8 -11 9 1 5 8 -2 16 -13 18
-25z m150 15 c18 7 17 5 -10 -16 -16 -12 -18 -11 -17 10 0 13 3 19 5 12 3 -7
13 -9 22 -6z m215 -2 c4 -8 2 -17 -3 -20 -6 -4 -10 3 -10 14 0 25 6 27 13 6z
m603 -3 c1 -7 0 -8 -3 -2 -9 18 -23 11 -24 -12 0 -13 -3 -17 -6 -10 -7 18 5
44 19 40 6 -2 13 -10 14 -16z m162 5 c18 7 17 5 -10 -16 -16 -12 -18 -11 -17
10 0 13 3 19 5 12 3 -7 13 -9 22 -6z m-1841 -19 c-3 -8 -6 -5 -6 6 -1 11 2 17
5 13 3 -3 4 -12 1 -19z m358 11 c11 -16 1 -19 -13 -3 -7 8 -8 14 -3 14 5 0 13
-5 16 -11z m661 -14 c1 -8 -2 -13 -7 -9 -5 3 -9 12 -9 21 0 19 13 9 16 -12z
m229 15 c3 -5 1 -10 -4 -10 -6 0 -11 5 -11 10 0 6 2 10 4 10 3 0 8 -4 11 -10z
m203 -21 c-3 -8 -7 -3 -11 10 -4 17 -3 21 5 13 5 -5 8 -16 6 -23z m547 21 c3
-5 1 -10 -4 -10 -6 0 -11 5 -11 10 0 6 2 10 4 10 3 0 8 -4 11 -10z m1072 -10
c4 -12 3 -13 -5 -1 -6 8 -17 11 -27 8 -10 -4 -14 -3 -10 4 9 14 37 7 42 -11z
m401 -11 c-3 -8 -7 -3 -11 10 -4 17 -3 21 5 13 5 -5 8 -16 6 -23z m-1277 -2
c-10 -9 -11 -8 -5 6 3 10 9 15 12 12 3 -3 0 -11 -7 -18z m520 0 c-10 -9 -11
-8 -5 6 3 10 9 15 12 12 3 -3 0 -11 -7 -18z m223 8 c-4 -8 -11 -15 -16 -15 -6
0 -5 6 2 15 7 8 14 15 16 15 2 0 1 -7 -2 -15z m297 -8 c-10 -9 -11 -8 -5 6 3
10 9 15 12 12 3 -3 0 -11 -7 -18z m-3101 -79 c0 -7 -5 -20 -11 -28 -8 -12 -9
-10 -4 7 4 15 1 23 -12 26 -14 4 -13 5 5 6 12 0 22 -5 22 -11z m350 3 c0 -5
-9 -7 -20 -4 -11 3 -20 7 -20 9 0 2 9 4 20 4 11 0 20 -4 20 -9z m168 -16 c-3
-3 -9 2 -12 12 -6 14 -5 15 5 6 7 -7 10 -15 7 -18z m216 -5 c-6 -6 -10 -3 -10
10 0 13 4 16 10 10 7 -7 7 -13 0 -20z m64 9 c3 -12 2 -12 -6 0 -6 8 -15 10
-22 6 -9 -5 -11 -4 -6 4 10 15 28 10 34 -10z m166 -9 c-6 -6 -10 -3 -10 10 0
13 4 16 10 10 7 -7 7 -13 0 -20z m66 21 c0 -5 -9 -7 -20 -4 -11 3 -20 7 -20 9
0 2 9 4 20 4 11 0 20 -4 20 -9z m288 -12 c3 -12 2 -12 -6 0 -6 8 -15 10 -22 6
-9 -5 -11 -4 -6 4 10 15 28 10 34 -10z m167 -14 c0 -17 -6 -30 -15 -32 -13 -4
-13 -3 0 7 12 9 13 12 1 17 -11 5 -11 7 0 14 12 8 11 11 -1 20 -13 9 -13 10 0
6 9 -2 15 -15 15 -32z m62 -17 c-2 -13 -4 -5 -4 17 -1 22 1 32 4 23 2 -10 2
-28 0 -40z m111 29 c2 -9 -2 -17 -8 -17 -6 0 -8 5 -4 11 3 6 0 16 -7 21 -12 8
-11 9 1 5 8 -2 16 -11 18 -20z m229 17 c-3 -3 -12 -4 -19 -1 -8 3 -5 6 6 6 11
1 17 -2 13 -5z m-1159 -49 c13 5 14 3 5 -6 -17 -17 -33 -2 -32 29 l2 27 4 -28
c3 -22 8 -27 21 -22z m226 -8 c7 -6 6 -7 -4 -4 -8 2 -16 16 -17 33 -1 25 0 26
4 4 3 -14 10 -29 17 -33z m-97 21 c-3 -8 -6 -5 -6 6 -1 11 2 17 5 13 3 -3 4
-12 1 -19z m35 8 c7 4 8 2 4 -4 -11 -18 -26 -14 -25 6 0 10 3 12 6 4 2 -6 10
-9 15 -6z m25 -8 c-3 -8 -6 -5 -6 6 -1 11 2 17 5 13 3 -3 4 -12 1 -19z m205 8
c7 4 8 2 4 -4 -11 -18 -26 -14 -25 6 0 10 3 12 6 4 2 -6 10 -9 15 -6z m25 -8
c-3 -8 -6 -5 -6 6 -1 11 2 17 5 13 3 -3 4 -12 1 -19z m1270 0 c-3 -8 -6 -5 -6
6 -1 11 2 17 5 13 3 -3 4 -12 1 -19z m520 0 c-3 -8 -6 -5 -6 6 -1 11 2 17 5
13 3 -3 4 -12 1 -19z m-2787 8 c0 -3 -4 -8 -10 -11 -5 -3 -10 -1 -10 4 0 6 5
11 10 11 6 0 10 -2 10 -4z m28 -21 c-3 -3 -9 2 -12 12 -6 14 -5 15 5 6 7 -7
10 -15 7 -18z m213 11 c-9 -11 -9 -15 1 -19 8 -4 7 -6 -4 -6 -21 -1 -23 10 -6
27 17 17 23 15 9 -2z m449 8 c0 -8 -19 -13 -24 -6 -3 5 1 9 9 9 8 0 15 -2 15
-3z m868 -28 c12 -3 12 -4 -3 -3 -11 1 -20 9 -21 17 0 8 1 10 3 3 2 -6 12 -14
21 -17z m1109 12 c-3 -8 -6 -5 -6 6 -1 11 2 17 5 13 3 -3 4 -12 1 -19z m-2246
-3 c11 6 11 5 2 -5 -12 -14 -33 -6 -33 13 0 8 3 7 9 -2 5 -8 14 -10 22 -6z
m220 0 c11 6 11 5 2 -5 -12 -14 -33 -6 -33 13 0 8 3 7 9 -2 5 -8 14 -10 22 -6z
m520 0 c11 6 11 5 2 -5 -12 -14 -33 -6 -33 13 0 8 3 7 9 -2 5 -8 14 -10 22 -6z
m-791 -11 c0 -2 -9 -4 -21 -4 -11 0 -18 4 -14 10 5 8 35 3 35 -6z m-467 -1
c-7 -2 -19 -2 -25 0 -7 3 -2 5 12 5 14 0 19 -2 13 -5z m1030 0 c-7 -2 -19 -2
-25 0 -7 3 -2 5 12 5 14 0 19 -2 13 -5z m750 0 c-7 -2 -19 -2 -25 0 -7 3 -2 5
12 5 14 0 19 -2 13 -5z m-1953 -63 c-13 -9 -13 -11 0 -20 10 -6 11 -10 3 -10
-7 0 -13 -8 -14 -17 0 -15 -2 -15 -8 2 -10 23 4 55 22 55 8 0 6 -4 -3 -10z
m-2609 -39 c-15 -15 -21 -17 -21 -7 0 8 7 17 16 20 9 3 12 11 8 18 -5 10 -4
10 6 2 9 -10 8 -16 -9 -33z m79 7 c0 -26 -9 -19 -15 11 -2 12 0 19 6 16 5 -4
9 -16 9 -27z m25 12 c-2 -27 -15 -38 -15 -13 0 16 8 33 15 33 1 0 1 -9 0 -20z
m60 0 c-2 -27 -15 -38 -15 -13 0 16 8 33 15 33 1 0 1 -9 0 -20z m230 0 c-2
-27 -15 -38 -15 -13 0 16 8 33 15 33 1 0 1 -9 0 -20z m1988 13 c-7 -2 -19 -2
-25 0 -7 3 -2 5 12 5 14 0 19 -2 13 -5z m54 -15 c-3 -8 -6 -5 -6 6 -1 11 2 17
5 13 3 -3 4 -12 1 -19z m90 0 c-3 -8 -6 -5 -6 6 -1 11 2 17 5 13 3 -3 4 -12 1
-19z m526 2 c-3 -12 -8 -19 -11 -16 -5 6 5 36 12 36 2 0 2 -9 -1 -20z m50 3
c-5 -13 -2 -15 15 -11 12 4 22 2 22 -3 0 -12 -37 -11 -45 1 -3 6 -3 15 0 20
10 16 15 12 8 -7z m147 7 c0 -5 -7 -7 -15 -4 -8 4 -15 8 -15 10 0 2 7 4 15 4
8 0 15 -4 15 -10z m195 -10 c-2 -27 -15 -38 -15 -13 0 16 8 33 15 33 1 0 1 -9
0 -20z m145 -12 c0 -26 -9 -19 -15 11 -2 12 0 19 6 16 5 -4 9 -16 9 -27z m60
0 c0 -26 -9 -19 -15 11 -2 12 0 19 6 16 5 -4 9 -16 9 -27z m25 12 c-2 -27 -15
-38 -15 -13 0 16 8 33 15 33 1 0 1 -9 0 -20z m85 11 c0 -5 -9 -7 -20 -4 -11 3
-20 7 -20 9 0 2 9 4 20 4 11 0 20 -4 20 -9z m120 -23 c0 -26 -9 -19 -15 11 -2
12 0 19 6 16 5 -4 9 -16 9 -27z m153 25 c-7 -2 -13 -12 -13 -20 0 -9 -3 -14
-6 -10 -10 10 4 37 18 36 10 0 10 -2 1 -6z m584 -40 c-3 -10 -5 -2 -5 17 0 19
2 27 5 18 2 -10 2 -26 0 -35z m700 0 c-3 -10 -5 -2 -5 17 0 19 2 27 5 18 2
-10 2 -26 0 -35z m910 0 c-3 -10 -5 -2 -5 17 0 19 2 27 5 18 2 -10 2 -26 0
-35z m-5996 8 c-12 -12 -21 -18 -21 -14 0 10 33 44 37 39 3 -2 -5 -14 -16 -25z
m409 6 c11 -5 9 -6 -4 -4 -11 1 -21 9 -23 17 -3 10 -2 11 4 4 4 -6 15 -14 23
-17z m2139 -21 c-9 -8 -10 -8 -5 2 4 6 2 12 -4 12 -7 0 -6 5 2 14 11 12 13 12
16 -1 2 -8 -2 -20 -9 -27z m732 15 c-12 -12 -21 -18 -21 -14 0 10 33 44 37 39
3 -2 -5 -14 -16 -25z m2016 -8 c-3 -10 -5 -4 -5 12 0 17 2 24 5 18 2 -7 2 -21
0 -30z m1013 27 c0 -5 -7 -7 -15 -4 -8 4 -15 8 -15 10 0 2 7 4 15 4 8 0 15 -4
15 -10z m-6400 -10 c0 -5 -2 -10 -4 -10 -3 0 -8 5 -11 10 -3 6 -1 10 4 10 6 0
11 -4 11 -10z m2557 -12 c-3 -8 -6 -5 -6 6 -1 11 2 17 5 13 3 -3 4 -12 1 -19z
m918 13 c3 -5 1 -12 -5 -16 -5 -3 -10 1 -10 9 0 18 6 21 15 7z m495 -1 c0 -5
-10 -10 -22 -9 -22 0 -22 1 -3 9 11 5 21 9 23 9 1 1 2 -3 2 -9z m77 -12 c-3
-8 -6 -5 -6 6 -1 11 2 17 5 13 3 -3 4 -12 1 -19z m520 0 c-3 -8 -6 -5 -6 6 -1
11 2 17 5 13 3 -3 4 -12 1 -19z m520 0 c-3 -8 -6 -5 -6 6 -1 11 2 17 5 13 3
-3 4 -12 1 -19z m230 0 c-3 -8 -6 -5 -6 6 -1 11 2 17 5 13 3 -3 4 -12 1 -19z
m520 0 c-3 -8 -6 -5 -6 6 -1 11 2 17 5 13 3 -3 4 -12 1 -19z m-5643 -4 c3 -8
2 -12 -4 -9 -6 3 -10 10 -10 16 0 14 7 11 14 -7z m2743 -6 c-3 -8 -6 -5 -6 6
-1 11 2 17 5 13 3 -3 4 -12 1 -19z m3443 12 c0 -5 -5 -10 -11 -10 -5 0 -7 5
-4 10 3 6 8 10 11 10 2 0 4 -4 4 -10z m-5523 -132 c-2 -13 -4 -5 -4 17 -1 22
1 32 4 23 2 -10 2 -28 0 -40z m4553 17 c0 -19 -4 -35 -8 -35 -4 0 -6 16 -4 35
2 19 6 35 8 35 2 0 4 -16 4 -35z m-5539 2 c-10 -9 -11 -8 -5 6 3 10 9 15 12
12 3 -3 0 -11 -7 -18z m166 -5 c-10 -10 -14 -22 -10 -27 5 -4 2 -5 -4 -1 -7 4
-13 17 -13 29 0 18 2 19 10 7 8 -12 10 -12 16 3 3 10 9 15 12 12 3 -2 -2 -13
-11 -23z m73 13 c0 -8 -4 -15 -10 -15 -5 0 -7 7 -4 15 4 8 8 15 10 15 2 0 4
-7 4 -15z m161 -8 c-10 -9 -11 -8 -5 6 3 10 9 15 12 12 3 -3 0 -11 -7 -18z
m356 1 c-3 -8 -6 -5 -6 6 -1 11 2 17 5 13 3 -3 4 -12 1 -19z m170 3 c0 -11 -5
-18 -9 -15 -4 3 -5 11 -1 19 7 21 12 19 10 -4z m870 -3 c-3 -8 -6 -5 -6 6 -1
11 2 17 5 13 3 -3 4 -12 1 -19z m224 -1 c-10 -9 -11 -8 -5 6 3 10 9 15 12 12
3 -3 0 -11 -7 -18z m166 -5 c-10 -10 -14 -22 -10 -27 5 -4 2 -5 -4 -1 -7 4
-13 17 -13 29 0 18 2 19 10 7 8 -12 10 -12 16 3 3 10 9 15 12 12 3 -2 -2 -13
-11 -23z m183 -2 c0 -16 -2 -30 -4 -30 -2 0 -6 14 -8 30 -3 17 -1 30 4 30 4 0
8 -13 8 -30z m2871 7 c-10 -9 -11 -8 -5 6 3 10 9 15 12 12 3 -3 0 -11 -7 -18z
m236 4 c0 -11 -5 -18 -9 -15 -4 3 -5 11 -1 19 7 21 12 19 10 -4z m873 4 c0 -8
-4 -15 -10 -15 -5 0 -7 7 -4 15 4 8 8 15 10 15 2 0 4 -7 4 -15z m-6288 -37
c-6 -6 -7 0 -4 19 5 21 7 23 10 9 2 -10 0 -22 -6 -28z m41 29 c8 5 8 2 0 -9
-7 -8 -9 -19 -5 -23 4 -5 1 -5 -5 -1 -7 4 -13 17 -12 29 0 12 3 16 6 9 2 -6
10 -9 16 -5z m279 -12 c3 -13 1 -22 -3 -19 -9 5 -13 44 -5 44 2 0 6 -11 8 -25z
m241 12 c8 5 8 2 0 -9 -7 -8 -9 -19 -5 -23 4 -5 1 -5 -5 -1 -7 4 -13 17 -12
29 0 12 3 16 6 9 2 -6 10 -9 16 -5z m512 3 c-3 -5 2 -11 12 -11 17 -1 17 -2 0
-6 -10 -3 -14 -10 -11 -16 5 -9 4 -9 -6 0 -12 11 -8 43 5 43 4 0 3 -4 0 -10z
m459 -5 c3 -8 1 -15 -4 -15 -6 0 -10 7 -10 15 0 8 2 15 4 15 2 0 6 -7 10 -15z
m33 -7 c-3 -8 -6 -5 -6 6 -1 11 2 17 5 13 3 -3 4 -12 1 -19z m53 8 c0 -7 -10
-16 -22 -19 -21 -5 -21 -5 -6 7 10 7 15 16 11 19 -3 4 -1 7 5 7 7 0 12 -6 12
-14z m144 -1 c3 -8 1 -15 -4 -15 -6 0 -10 7 -10 15 0 8 2 15 4 15 2 0 6 -7 10
-15z m28 -27 c-6 -6 -7 0 -4 19 5 21 7 23 10 9 2 -10 0 -22 -6 -28z m408 11
c0 -10 -5 -19 -11 -19 -5 0 -7 5 -4 10 3 6 2 10 -4 10 -5 0 -12 -6 -14 -12 -4
-10 -6 -10 -6 0 -1 7 6 15 14 18 8 4 12 11 8 17 -3 6 -1 7 5 3 7 -4 12 -16 12
-27z m1377 9 c-3 -8 -6 -5 -6 6 -1 11 2 17 5 13 3 -3 4 -12 1 -19z m230 0 c-3
-8 -6 -5 -6 6 -1 11 2 17 5 13 3 -3 4 -12 1 -19z m1237 7 c3 -8 1 -15 -4 -15
-6 0 -10 7 -10 15 0 8 2 15 4 15 2 0 6 -7 10 -15z m33 -7 c-3 -8 -6 -5 -6 6
-1 11 2 17 5 13 3 -3 4 -12 1 -19z m173 -9 c0 -10 -5 -19 -11 -19 -5 0 -7 5
-4 10 3 6 2 10 -4 10 -5 0 -12 -6 -14 -12 -4 -10 -6 -10 -6 0 -1 7 6 15 14 18
8 4 12 11 8 17 -3 6 -1 7 5 3 7 -4 12 -16 12 -27z m375 21 c-3 -5 2 -11 12
-11 17 -1 17 -2 0 -6 -10 -3 -14 -10 -11 -16 5 -9 4 -9 -6 0 -12 11 -8 43 5
43 4 0 3 -4 0 -10z m468 -3 c8 5 8 2 0 -9 -7 -8 -9 -19 -5 -23 4 -5 1 -5 -5
-1 -7 4 -13 17 -12 29 0 12 3 16 6 9 2 -6 10 -9 16 -5z m24 -9 c-3 -8 -6 -5
-6 6 -1 11 2 17 5 13 3 -3 4 -12 1 -19z m53 -5 c0 -20 -3 -24 -9 -14 -5 8 -14
10 -22 6 -8 -5 -5 1 6 13 26 27 25 27 25 -5z m144 12 c3 -8 1 -15 -4 -15 -6 0
-10 7 -10 15 0 8 2 15 4 15 2 0 6 -7 10 -15z m28 -27 c-6 -6 -7 0 -4 19 5 21
7 23 10 9 2 -10 0 -22 -6 -28z m-6367 22 c3 -5 1 -10 -4 -10 -6 0 -11 5 -11
10 0 6 2 10 4 10 3 0 8 -4 11 -10z m1469 -20 c-6 -6 -10 -3 -10 10 0 13 4 16
10 10 7 -7 7 -13 0 -20z m922 19 c3 -6 1 -16 -6 -22 -10 -9 -11 -9 -5 2 4 8 2
17 -6 22 -9 6 -10 9 -2 9 6 0 15 -5 19 -11z m3628 -19 c-6 -6 -10 -3 -10 10 0
13 4 16 10 10 7 -7 7 -13 0 -20z m-3964 5 c0 -8 -5 -15 -11 -15 -5 0 -8 4 -4
9 3 5 -3 12 -12 14 -14 4 -13 5 5 6 13 1 22 -5 22 -14z m3134 -1 c3 -8 2 -12
-4 -9 -6 3 -10 10 -10 16 0 14 7 11 14 -7z m1093 -6 c-3 -8 -6 -5 -6 6 -1 11
2 17 5 13 3 -3 4 -12 1 -19z m-5037 -4 c0 -2 -9 -4 -21 -4 -11 0 -18 4 -14 10
5 8 35 3 35 -6z m1500 0 c0 -2 -9 -4 -21 -4 -11 0 -18 4 -14 10 5 8 35 3 35
-6z m-2197 -1 c-7 -2 -19 -2 -25 0 -7 3 -2 5 12 5 14 0 19 -2 13 -5z m2020 0
c-7 -2 -19 -2 -25 0 -7 3 -2 5 12 5 14 0 19 -2 13 -5z m2470 0 c-7 -2 -19 -2
-25 0 -7 3 -2 5 12 5 14 0 19 -2 13 -5z m750 0 c-7 -2 -19 -2 -25 0 -7 3 -2 5
12 5 14 0 19 -2 13 -5z m-5815 -84 c3 -12 2 -12 -6 0 -6 8 -15 10 -22 6 -9 -5
-11 -4 -6 4 10 15 28 10 34 -10z m373 -11 c-3 -21 -6 -26 -9 -15 -3 17 3 47
11 47 2 0 1 -15 -2 -32z m199 28 c0 -2 -7 -7 -16 -10 -8 -3 -12 -2 -9 4 6 10
25 14 25 6z m41 -5 c-8 -5 -10 -14 -6 -22 6 -11 5 -11 -5 -2 -14 12 -6 33 13
33 8 0 7 -3 -2 -9z m304 -2 c11 -16 1 -19 -13 -3 -7 8 -8 14 -3 14 5 0 13 -5
16 -11z m63 -10 c3 -12 2 -12 -6 0 -6 8 -15 10 -22 6 -9 -5 -11 -4 -6 4 10 15
28 10 34 -10z m115 14 c-7 -2 -19 -2 -25 0 -7 3 -2 5 12 5 14 0 19 -2 13 -5z
m177 -2 c0 -5 -9 -7 -20 -4 -11 3 -20 7 -20 9 0 2 9 4 20 4 11 0 20 -4 20 -9z
m567 -38 c-3 -10 -5 -2 -5 17 0 19 2 27 5 18 2 -10 2 -26 0 -35z m686 40 c-7
-2 -13 -12 -13 -20 0 -9 -3 -14 -6 -10 -10 10 4 37 18 36 10 0 10 -2 1 -6z
m357 3 c0 -2 -7 -7 -16 -10 -8 -3 -12 -2 -9 4 6 10 25 14 25 6z m36 -16 c0
-12 -4 -16 -9 -11 -5 5 -6 14 -3 20 10 15 12 14 12 -9z m191 -27 c-3 -10 -5
-2 -5 17 0 19 2 27 5 18 2 -10 2 -26 0 -35z m1260 0 c-3 -10 -5 -2 -5 17 0 19
2 27 5 18 2 -10 2 -26 0 -35z m353 38 c0 -5 -9 -7 -20 -4 -11 3 -20 7 -20 9 0
2 9 4 20 4 11 0 20 -4 20 -9z m55 -1 c3 -6 -1 -7 -9 -4 -18 7 -21 14 -7 14 6
0 13 -4 16 -10z m115 6 c0 -2 -7 -7 -16 -10 -8 -3 -12 -2 -9 4 6 10 25 14 25
6z m180 -5 c0 -5 -9 -7 -20 -4 -11 3 -20 7 -20 9 0 2 9 4 20 4 11 0 20 -4 20
-9z m47 3 c-3 -3 -12 -4 -19 -1 -8 3 -5 6 6 6 11 1 17 -2 13 -5z m118 -5 c11
-16 1 -19 -13 -3 -7 8 -8 14 -3 14 5 0 13 -5 16 -11z m63 -10 c3 -12 2 -12 -6
0 -6 8 -15 10 -22 6 -9 -5 -11 -4 -6 4 10 15 28 10 34 -10z m230 -15 c-3 -14
-5 -12 -10 9 -3 19 -2 25 4 19 6 -6 8 -18 6 -28z m112 32 c0 -2 -7 -7 -16 -10
-8 -3 -12 -2 -9 4 6 10 25 14 25 6z m175 -6 c3 -6 -1 -7 -9 -4 -18 7 -21 14
-7 14 6 0 13 -4 16 -10z m64 -23 c0 -12 -3 -16 -6 -9 -2 6 -10 9 -16 5 -8 -5
-8 -2 0 9 7 8 9 19 5 23 -4 5 -1 5 6 1 6 -4 12 -17 11 -29z m167 22 c3 -6 -4
-21 -17 -33 -22 -20 -22 -20 -6 0 21 26 21 31 0 37 -16 4 -16 5 -1 6 9 0 20
-4 24 -10z m114 7 c0 -2 -7 -7 -16 -10 -8 -3 -12 -2 -9 4 6 10 25 14 25 6z
m50 -26 c0 -16 -2 -30 -4 -30 -2 0 -6 14 -8 30 -3 17 -1 30 4 30 4 0 8 -13 8
-30z m113 23 c-7 -2 -13 -12 -13 -20 0 -9 -3 -14 -6 -10 -10 10 4 37 18 36 10
0 10 -2 1 -6z m64 1 c-3 -3 -12 -4 -19 -1 -8 3 -5 6 6 6 11 1 17 -2 13 -5z
m-6330 -36 c-3 -8 -6 -5 -6 6 -1 11 2 17 5 13 3 -3 4 -12 1 -19z m290 0 c-3
-8 -6 -5 -6 6 -1 11 2 17 5 13 3 -3 4 -12 1 -19z m940 0 c-3 -8 -6 -5 -6 6 -1
11 2 17 5 13 3 -3 4 -12 1 -19z m42 5 c0 -11 -3 -13 -6 -5 -2 6 -10 9 -15 6
-7 -4 -8 -2 -4 4 11 18 26 14 25 -5z m1084 10 c-7 -2 -19 -2 -25 0 -7 3 -2 5
12 5 14 0 19 -2 13 -5z m187 -3 c0 -5 -5 -10 -11 -10 -5 0 -7 5 -4 10 3 6 8
10 11 10 2 0 4 -4 4 -10z m77 -22 c-3 -7 -5 -2 -5 12 0 14 2 19 5 13 2 -7 2
-19 0 -25z m60 0 c-3 -7 -5 -2 -5 12 0 14 2 19 5 13 2 -7 2 -19 0 -25z m890
10 c-3 -8 -6 -5 -6 6 -1 11 2 17 5 13 3 -3 4 -12 1 -19z m230 0 c-3 -8 -6 -5
-6 6 -1 11 2 17 5 13 3 -3 4 -12 1 -19z m1086 15 c-7 -2 -19 -2 -25 0 -7 3 -2
5 12 5 14 0 19 -2 13 -5z m494 -25 c-3 -7 -5 -2 -5 12 0 14 2 19 5 13 2 -7 2
-19 0 -25z m400 10 c-3 -8 -6 -5 -6 6 -1 11 2 17 5 13 3 -3 4 -12 1 -19z m120
-10 c-3 -7 -5 -2 -5 12 0 14 2 19 5 13 2 -7 2 -19 0 -25z m433 22 c0 -5 -5
-10 -11 -10 -5 0 -7 5 -4 10 3 6 8 10 11 10 2 0 4 -4 4 -10z m87 -22 c-3 -7
-5 -2 -5 12 0 14 2 19 5 13 2 -7 2 -19 0 -25z m90 0 c-3 -7 -5 -2 -5 12 0 14
2 19 5 13 2 -7 2 -19 0 -25z m-6594 7 c-3 -9 -8 -14 -10 -11 -3 3 -2 9 2 15 9
16 15 13 8 -4z m980 0 c-3 -9 -8 -14 -10 -11 -3 3 -2 9 2 15 9 16 15 13 8 -4z
m1584 -7 c-3 -8 -6 -5 -6 6 -1 11 2 17 5 13 3 -3 4 -12 1 -19z m1720 0 c-3 -8
-6 -5 -6 6 -1 11 2 17 5 13 3 -3 4 -12 1 -19z m863 18 c0 -2 -8 -10 -17 -17
-16 -13 -17 -12 -4 4 13 16 21 21 21 13z m153 -11 c-3 -9 -8 -14 -10 -11 -3 3
-2 9 2 15 9 16 15 13 8 -4z m394 -7 c-3 -8 -6 -5 -6 6 -1 11 2 17 5 13 3 -3 4
-12 1 -19z m143 18 c0 -2 -8 -10 -17 -17 -16 -13 -17 -12 -4 4 13 16 21 21 21
13z m527 -18 c-3 -8 -6 -5 -6 6 -1 11 2 17 5 13 3 -3 4 -12 1 -19z m343 8 c0
-3 -4 -8 -10 -11 -5 -3 -10 -1 -10 4 0 6 5 11 10 11 6 0 10 -2 10 -4z m-2427
-83 c-7 -2 -14 -19 -14 -36 -1 -25 -3 -27 -6 -9 -6 30 3 52 19 51 10 0 10 -2
1 -6z m-4042 -42 c-12 -12 -21 -16 -21 -11 0 13 34 48 38 39 2 -4 -6 -17 -17
-28z m121 9 c3 -16 1 -30 -3 -30 -4 0 -9 14 -11 30 -3 17 -1 30 3 30 4 0 9
-13 11 -30z m585 11 c0 -11 -5 -18 -9 -15 -4 3 -5 11 -1 19 7 21 12 19 10 -4z
m933 -11 c0 -10 -3 -21 -7 -23 -5 -3 -8 8 -8 23 0 15 3 26 8 23 4 -2 7 -13 7
-23z m510 10 c0 -30 -3 -35 -20 -32 -23 6 -25 11 -10 25 10 9 11 9 6 0 -4 -7
-2 -13 5 -13 6 0 9 8 6 20 -3 11 -1 20 4 20 5 0 9 -9 9 -20z m1812 -7 c-3 -16
-7 -22 -10 -15 -4 13 4 42 11 42 2 0 2 -12 -1 -27z m351 12 c-3 -9 -8 -14 -10
-11 -3 3 -2 9 2 15 9 16 15 13 8 -4z m169 -12 c-3 -16 -7 -22 -10 -15 -4 13 4
42 11 42 2 0 2 -12 -1 -27z m78 23 c0 -2 -8 -10 -17 -17 -16 -13 -17 -12 -4 4
13 16 21 21 21 13z m273 -11 c-3 -9 -8 -14 -10 -11 -3 3 -2 9 2 15 9 16 15 13
8 -4z m461 0 c3 -8 1 -15 -4 -15 -6 0 -10 7 -10 15 0 8 2 15 4 15 2 0 6 -7 10
-15z m376 -15 c0 -10 -3 -21 -8 -23 -4 -3 -7 8 -7 23 -1 16 3 26 7 24 4 -3 8
-14 8 -24z m-5880 10 c0 -5 -5 -10 -11 -10 -5 0 -7 5 -4 10 3 6 8 10 11 10 2
0 4 -4 4 -10z m53 -31 c-6 -6 -9 -1 -7 13 3 33 6 36 11 14 3 -10 1 -22 -4 -27z
m30 26 c4 -8 2 -17 -3 -20 -6 -4 -10 3 -10 14 0 25 6 27 13 6z m75 2 c18 7 17
5 -10 -16 -16 -12 -18 -11 -17 10 0 13 3 19 5 12 3 -7 13 -9 22 -6z m215 -2
c4 -8 2 -17 -3 -20 -6 -4 -10 3 -10 14 0 25 6 27 13 6z m200 -26 c-6 -6 -9 -1
-7 13 3 33 6 36 11 14 3 -10 1 -22 -4 -27z m52 30 c11 -16 1 -19 -13 -3 -7 8
-8 14 -3 14 5 0 13 -5 16 -11z m351 -7 c1 -7 0 -8 -3 -2 -9 18 -23 11 -24 -12
0 -13 -3 -17 -6 -10 -7 18 5 44 19 40 6 -2 13 -10 14 -16z m814 8 c0 -5 -5
-10 -11 -10 -5 0 -7 5 -4 10 3 6 8 10 11 10 2 0 4 -4 4 -10z m230 0 c0 -5 -5
-10 -11 -10 -5 0 -7 5 -4 10 3 6 8 10 11 10 2 0 4 -4 4 -10z m47 4 c-3 -3 -12
-4 -19 -1 -8 3 -5 6 6 6 11 1 17 -2 13 -5z m111 -7 c18 7 17 5 -10 -16 -16
-12 -18 -11 -17 10 0 13 3 19 5 12 3 -7 13 -9 22 -6z m69 -18 c1 -19 1 -20 -4
-4 -3 11 -10 24 -17 28 -7 6 -6 7 4 4 8 -2 16 -14 17 -28z m1610 9 c-3 -8 -6
-5 -6 6 -1 11 2 17 5 13 3 -3 4 -12 1 -19z m-3832 2 c3 -5 1 -10 -4 -10 -6 0
-11 5 -11 10 0 6 2 10 4 10 3 0 8 -4 11 -10z m95 0 c0 -5 -2 -10 -4 -10 -3 0
-8 5 -11 10 -3 6 -1 10 4 10 6 0 11 -4 11 -10z m167 -10 c3 -10 2 -11 -4 -4
-4 6 -15 14 -23 17 -11 5 -9 6 4 4 11 -1 21 -9 23 -17z m258 10 c3 -5 1 -10
-4 -10 -6 0 -11 5 -11 10 0 6 2 10 4 10 3 0 8 -4 11 -10z m203 -15 c-3 -3 -9
2 -12 12 -6 14 -5 15 5 6 7 -7 10 -15 7 -18z m749 -7 c-3 -7 -5 -2 -5 12 0 14
2 19 5 13 2 -7 2 -19 0 -25z m318 22 c3 -5 1 -10 -4 -10 -6 0 -11 5 -11 10 0
6 2 10 4 10 3 0 8 -4 11 -10z m602 -16 c2 -13 1 -15 -4 -4 -3 8 -11 19 -17 23
-7 6 -6 7 4 4 8 -2 16 -12 17 -23z m2008 16 c3 -6 -1 -7 -9 -4 -18 7 -21 14
-7 14 6 0 13 -4 16 -10z m123 -21 c-3 -8 -7 -3 -11 10 -4 17 -3 21 5 13 5 -5
8 -16 6 -23z m520 6 c-3 -3 -9 2 -12 12 -6 14 -5 15 5 6 7 -7 10 -15 7 -18z
m59 5 c4 -12 3 -13 -5 -1 -6 8 -17 11 -27 8 -10 -4 -14 -3 -10 4 9 14 37 7 42
-11z m310 -2 c-3 -8 -6 -5 -6 6 -1 11 2 17 5 13 3 -3 4 -12 1 -19z m210 2 c4
-12 3 -13 -5 -1 -6 8 -17 11 -27 8 -10 -4 -14 -3 -10 4 9 14 37 7 42 -11z m48
9 c11 -16 1 -19 -13 -3 -7 8 -8 14 -3 14 5 0 13 -5 16 -11z m150 1 c3 -5 1
-10 -4 -10 -6 0 -11 5 -11 10 0 6 2 10 4 10 3 0 8 -4 11 -10z m-5878 -22 c-3
-8 -6 -5 -6 6 -1 11 2 17 5 13 3 -3 4 -12 1 -19z m1790 0 c-3 -8 -6 -5 -6 6
-1 11 2 17 5 13 3 -3 4 -12 1 -19z m230 0 c-3 -8 -6 -5 -6 6 -1 11 2 17 5 13
3 -3 4 -12 1 -19z m93 7 c0 -8 -4 -15 -8 -15 -5 0 -9 7 -9 15 0 8 4 15 9 15 4
0 8 -7 8 -15z m3204 0 c-4 -8 -11 -15 -16 -15 -6 0 -5 6 2 15 7 8 14 15 16 15
2 0 1 -7 -2 -15z m237 -8 c-10 -9 -11 -8 -5 6 3 10 9 15 12 12 3 -3 0 -11 -7
-18z m283 8 c-4 -8 -11 -15 -16 -15 -6 0 -5 6 2 15 7 8 14 15 16 15 2 0 1 -7
-2 -15z m243 -7 c-3 -8 -6 -5 -6 6 -1 11 2 17 5 13 3 -3 4 -12 1 -19z m-1274
5 c-7 -2 -19 -2 -25 0 -7 3 -2 5 12 5 14 0 19 -2 13 -5z"/>
<path d="M5008 4993 c-31 -36 -67 -110 -108 -223 -36 -99 -101 -300 -97 -300
1 0 26 9 55 20 76 29 170 40 248 29 37 -5 69 -7 72 -5 6 7 -24 155 -54 261
-30 108 -58 182 -82 213 -17 22 -19 22 -34 5z"/>
<path d="M4975 4420 c-98 -21 -158 -62 -187 -127 -50 -113 40 -191 269 -234
59 -11 128 -29 154 -39 27 -10 50 -16 52 -14 2 2 0 28 -4 57 -32 210 -51 313
-59 322 -24 28 -159 49 -225 35z"/>
<path d="M4420 3110 c0 -5 5 -10 10 -10 6 0 10 5 10 10 0 6 -4 10 -10 10 -5 0
-10 -4 -10 -10z"/>
<path d="M5453 2896 c15 -12 16 -18 7 -35 -6 -12 -7 -21 -2 -21 9 0 32 43 32
60 0 6 -12 10 -27 10 -26 -1 -27 -2 -10 -14z"/>
<path d="M5513 2524 c20 -6 22 -20 5 -27 -10 -4 -10 -6 0 -6 18 -1 15 -19 -5
-25 -11 -3 -7 -4 7 -3 21 2 25 7 25 32 -1 25 -5 30 -25 32 -15 1 -18 0 -7 -3z"/>
<path d="M5511 2400 c-7 -4 -11 -20 -9 -36 2 -21 8 -29 23 -29 15 0 21 8 23
31 3 33 -14 49 -37 34z m29 -40 c0 -5 -5 -10 -11 -10 -5 0 -7 5 -4 10 3 6 8
10 11 10 2 0 4 -4 4 -10z"/>
<path d="M6382 2393 c15 -4 16 -8 7 -24 -6 -11 -9 -25 -7 -30 2 -6 11 6 21 25
l17 36 -28 -1 c-17 -1 -20 -3 -10 -6z"/>
<path d="M5857 2273 c-4 -3 -7 -19 -7 -35 0 -21 5 -28 19 -28 28 0 37 21 16
37 -11 7 -13 13 -7 13 7 0 12 5 12 10 0 11 -23 14 -33 3z m23 -43 c0 -5 -4
-10 -10 -10 -5 0 -10 5 -10 10 0 6 5 10 10 10 6 0 10 -4 10 -10z"/>
<path d="M6080 2260 c0 -11 7 -20 15 -20 21 0 19 -18 -2 -23 -14 -4 -13 -5 4
-6 30 -1 40 19 17 36 -16 12 -17 15 -4 23 12 8 11 10 -7 10 -16 0 -23 -6 -23
-20z"/>
<path d="M5920 2230 c0 -5 5 -10 10 -10 6 0 10 5 10 10 0 6 -4 10 -10 10 -5 0
-10 -4 -10 -10z"/>
<path d="M6553 1763 c20 -5 21 -8 6 -35 -6 -11 -8 -22 -6 -25 5 -4 37 49 37
62 0 3 -12 4 -27 4 -17 -1 -21 -3 -10 -6z"/>
<path d="M6613 1513 c21 -6 22 -17 2 -33 -23 -19 -18 -30 13 -29 15 0 22 3 15
5 -8 4 -10 16 -6 35 5 26 3 29 -18 28 -17 -1 -19 -3 -6 -6z"/>
<path d="M6605 1391 c-3 -6 1 -11 11 -11 15 0 15 -2 0 -25 -9 -13 -16 -27 -16
-30 0 -9 39 -5 45 5 3 6 2 10 -2 10 -5 0 -9 12 -8 27 0 27 -18 42 -30 24z"/>
<path d="M6726 1384 c-9 -8 -16 -21 -16 -28 0 -18 27 -39 40 -31 16 10 12 43
-7 48 -17 4 -17 5 0 6 9 0 17 6 17 11 0 15 -16 12 -34 -6z m24 -34 c0 -5 -4
-10 -10 -10 -5 0 -10 5 -10 10 0 6 5 10 10 10 6 0 10 -4 10 -10z"/>
<path d="M2543 4401 c-241 -89 -350 -379 -233 -617 140 -286 515 -310 690 -46
90 135 93 338 7 484 -36 62 -118 135 -185 166 -77 35 -203 41 -279 13z"/>
<path d="M4822 3125 c2 -25 12 -32 22 -16 8 12 -3 41 -15 41 -5 0 -8 -11 -7
-25z"/>
<path d="M4940 3110 c0 -5 5 -10 10 -10 6 0 10 5 10 10 0 6 -4 10 -10 10 -5 0
-10 -4 -10 -10z"/>
<path d="M5291 2991 c-8 -6 -9 -11 -3 -15 6 -3 14 -1 17 5 9 14 2 20 -14 10z"/>
<path d="M4420 2860 c0 -5 5 -10 10 -10 6 0 10 5 10 10 0 6 -4 10 -10 10 -5 0
-10 -4 -10 -10z"/>
<path d="M5110 2760 c0 -5 5 -10 10 -10 6 0 10 5 10 10 0 6 -4 10 -10 10 -5 0
-10 -4 -10 -10z"/>
<path d="M5340 2760 c0 -5 6 -10 13 -10 8 0 7 -3 -3 -10 -8 -5 -11 -12 -7 -16
12 -12 28 11 21 29 -7 18 -24 23 -24 7z"/>
<path d="M4190 2510 c0 -5 5 -10 10 -10 6 0 10 5 10 10 0 6 -4 10 -10 10 -5 0
-10 -4 -10 -10z"/>
<path d="M4190 2480 c0 -5 5 -10 10 -10 6 0 10 5 10 10 0 6 -4 10 -10 10 -5 0
-10 -4 -10 -10z"/>
<path d="M4245 2509 c-11 -17 1 -21 15 -4 8 9 8 15 2 15 -6 0 -14 -5 -17 -11z"/>
<path d="M4822 2495 c2 -25 12 -32 22 -16 8 12 -3 41 -15 41 -5 0 -8 -11 -7
-25z"/>
<path d="M5170 2480 c0 -5 5 -10 10 -10 6 0 10 5 10 10 0 6 -4 10 -10 10 -5 0
-10 -4 -10 -10z"/>
<path d="M4420 2480 c0 -5 5 -10 10 -10 6 0 10 5 10 10 0 6 -4 10 -10 10 -5 0
-10 -4 -10 -10z"/>
<path d="M4070 2254 c0 -8 5 -12 10 -9 6 3 10 10 10 16 0 5 -4 9 -10 9 -5 0
-10 -7 -10 -16z"/>
<path d="M4130 2230 c0 -5 5 -10 10 -10 6 0 10 5 10 10 0 6 -4 10 -10 10 -5 0
-10 -4 -10 -10z"/>
<path d="M4420 2230 c0 -5 5 -10 10 -10 6 0 10 5 10 10 0 6 -4 10 -10 10 -5 0
-10 -4 -10 -10z"/>
<path d="M5460 2230 c0 -5 5 -10 10 -10 6 0 10 5 10 10 0 6 -4 10 -10 10 -5 0
-10 -4 -10 -10z"/>
<path d="M4070 2130 c0 -5 5 -10 10 -10 6 0 10 5 10 10 0 6 -4 10 -10 10 -5 0
-10 -4 -10 -10z"/>
<path d="M4590 2130 c0 -5 5 -10 10 -10 6 0 10 5 10 10 0 6 -4 10 -10 10 -5 0
-10 -4 -10 -10z"/>
<path d="M5466 2111 c-4 -7 -5 -15 -2 -18 9 -9 19 4 14 18 -4 11 -6 11 -12 0z"/>
</g>
</svg>
